<svg width="173" height="147" viewBox="0 0 173 147" fill="none" xmlns="http://www.w3.org/2000/svg">
<path opacity="0.25" d="M42.08 146.76H41.86C34.38 146.76 27.8533 144.78 22.28 140.82C16.7067 136.713 12.38 131.213 9.3 124.32C6.22 117.28 3.94667 109.58 2.48 101.22C1.01333 92.86 0.28 83.84 0.28 74.16C0.28 52.3067 3.8 34.56 10.84 20.92C18.0267 7.13332 28.66 0.239989 42.74 0.239989C50.66 0.239989 57.4067 2.36666 62.98 6.62C68.5533 10.8733 72.7333 16.6667 75.52 24C78.4533 31.3333 80.5067 38.96 81.68 46.88C82.8533 54.8 83.44 63.4533 83.44 72.84C83.44 97.3333 79.5533 115.813 71.78 128.28C64.1533 140.6 54.2533 146.76 42.08 146.76ZM42.3 122.12H42.52C46.7733 122.12 49.8533 118.233 51.76 110.46C53.6667 102.54 54.62 90.22 54.62 73.5C54.62 57.22 53.6667 45.0467 51.76 36.98C50 28.9133 46.92 24.88 42.52 24.88C33.4267 24.88 28.9533 41.0867 29.1 73.5C28.66 105.913 33.06 122.12 42.3 122.12ZM172.272 145H94.1719V125.64L108.252 107.6C114.265 99.8267 118.739 93.96 121.672 90C124.605 85.8933 127.905 80.9067 131.572 75.04C135.385 69.0267 138.025 63.5267 139.492 58.54C141.105 53.5533 141.912 48.64 141.912 43.8C141.912 37.7867 140.299 33.02 137.072 29.5C133.992 25.98 129.519 24.22 123.652 24.22C117.199 24.22 110.085 26.5667 102.312 31.26L97.0319 9.03999C106.272 3.17332 116.905 0.239989 128.932 0.239989C143.305 0.239989 153.792 4.19999 160.392 12.12C166.992 20.04 170.292 29.8667 170.292 41.6C170.292 53.6267 167.359 64.8467 161.492 75.26C155.625 85.6733 147.485 96.9667 137.072 109.14L128.492 119.26V119.7H172.272V145Z" fill="#8CBC43"/>
</svg>
