<svg width="170" height="147" viewBox="0 0 170 147" fill="none" xmlns="http://www.w3.org/2000/svg">
<path opacity="0.25" d="M42.08 146.76H41.86C34.38 146.76 27.8533 144.78 22.28 140.82C16.7067 136.713 12.38 131.213 9.3 124.32C6.22 117.28 3.94667 109.58 2.48 101.22C1.01333 92.86 0.28 83.84 0.28 74.16C0.28 52.3067 3.8 34.56 10.84 20.92C18.0267 7.13332 28.66 0.239989 42.74 0.239989C50.66 0.239989 57.4067 2.36666 62.98 6.62C68.5533 10.8733 72.7333 16.6667 75.52 24C78.4533 31.3333 80.5067 38.96 81.68 46.88C82.8533 54.8 83.44 63.4533 83.44 72.84C83.44 97.3333 79.5533 115.813 71.78 128.28C64.1533 140.6 54.2533 146.76 42.08 146.76ZM42.3 122.12H42.52C46.7733 122.12 49.8533 118.233 51.76 110.46C53.6667 102.54 54.62 90.22 54.62 73.5C54.62 57.22 53.6667 45.0467 51.76 36.98C50 28.9133 46.92 24.88 42.52 24.88C33.4267 24.88 28.9533 41.0867 29.1 73.5C28.66 105.913 33.06 122.12 42.3 122.12ZM93.9519 140.38L97.9119 117.72C104.659 121.387 111.772 123.22 119.252 123.22C126.145 123.22 131.499 121.313 135.312 117.5C139.125 113.687 141.032 108.7 141.032 102.54C141.032 95.06 138.539 89.4867 133.552 85.82C128.565 82.0067 122.185 80.0267 114.412 79.88H110.452V58.76H113.312C119.619 58.6133 125.192 57.0733 130.032 54.14C134.872 51.2067 137.292 46.5867 137.292 40.28C137.292 35.1467 135.825 31.1133 132.892 28.18C129.959 25.2467 125.925 23.78 120.792 23.78C114.632 23.78 108.619 25.6133 102.752 29.28L98.7919 7.72C106.712 2.73332 116.539 0.239989 128.272 0.239989C140.299 0.239989 149.612 3.53999 156.212 10.14C162.812 16.74 166.112 24.9533 166.112 34.78C166.112 41.82 164.279 48.2 160.612 53.92C156.945 59.64 151.885 63.9667 145.432 66.9V67.34C152.619 69.8333 158.485 74.2333 163.032 80.54C167.579 86.7 169.852 94.4 169.852 103.64C169.852 115.373 165.525 125.493 156.872 134C148.365 142.507 136.705 146.76 121.892 146.76C110.745 146.76 101.432 144.633 93.9519 140.38Z" fill="#8CBC43"/>
</svg>
