<svg width="180" height="147" viewBox="0 0 180 147" fill="none" xmlns="http://www.w3.org/2000/svg">
<path opacity="0.25" d="M42.08 146.76H41.86C34.38 146.76 27.8533 144.78 22.28 140.82C16.7067 136.713 12.38 131.213 9.3 124.32C6.22 117.28 3.94667 109.58 2.48 101.22C1.01333 92.86 0.28 83.84 0.28 74.16C0.28 52.3067 3.8 34.56 10.84 20.92C18.0267 7.13332 28.66 0.239989 42.74 0.239989C50.66 0.239989 57.4067 2.36666 62.98 6.62C68.5533 10.8733 72.7333 16.6667 75.52 24C78.4533 31.3333 80.5067 38.96 81.68 46.88C82.8533 54.8 83.44 63.4533 83.44 72.84C83.44 97.3333 79.5533 115.813 71.78 128.28C64.1533 140.6 54.2533 146.76 42.08 146.76ZM42.3 122.12H42.52C46.7733 122.12 49.8533 118.233 51.76 110.46C53.6667 102.54 54.62 90.22 54.62 73.5C54.62 57.22 53.6667 45.0467 51.76 36.98C50 28.9133 46.92 24.88 42.52 24.88C33.4267 24.88 28.9533 41.0867 29.1 73.5C28.66 105.913 33.06 122.12 42.3 122.12ZM165.672 145H140.152V110.9H91.0919V91.1L137.952 1.99999H165.672V87.8H179.752V110.9H165.672V145ZM115.732 87.8H140.152V58.54C140.152 54.8733 140.665 47.0267 141.692 35H140.812C138.905 39.6933 135.605 47.1 130.912 57.22L115.732 87.36V87.8Z" fill="#8CBC43"/>
</svg>
