<svg width="142" height="142" viewBox="0 0 142 142" fill="none" xmlns="http://www.w3.org/2000/svg">
<path d="M19.9204 119.591C12.8278 112.136 7.45338 103.218 4.17453 93.4634C0.895673 83.7093 -0.208107 73.3557 0.940699 63.1295C2.0895 52.9034 5.46304 43.0527 10.8244 34.2692C16.1858 25.4858 23.405 17.9825 31.9751 12.2862" stroke="white" stroke-linecap="round"/>
<path d="M19.9204 119.591C12.8278 112.136 7.45338 103.218 4.17453 93.4634C0.895673 83.7093 -0.208107 73.3557 0.940699 63.1295C2.0895 52.9034 5.46304 43.0527 10.8244 34.2692C16.1858 25.4858 23.405 17.9825 31.9751 12.2862" stroke="white" stroke-linecap="round"/>
<path d="M135.668 51.6536C140.44 67.6029 139.149 84.7529 132.044 99.8082C124.939 114.864 112.521 126.762 97.1756 133.218" stroke="white" stroke-linecap="round"/>
<path d="M135.668 51.6536C140.44 67.6029 139.149 84.7529 132.044 99.8082C124.939 114.864 112.521 126.762 97.1756 133.218" stroke="white" stroke-linecap="round"/>
</svg>
