<svg width="154" height="154" viewBox="0 0 154 154" fill="none" xmlns="http://www.w3.org/2000/svg">
<path d="M114.603 126.086C105.961 132.706 95.7253 136.927 84.9292 138.323C74.1332 139.719 63.16 138.24 53.1188 134.035C43.0776 129.831 34.3244 123.05 27.7438 114.379C21.1632 105.707 16.9886 95.4515 15.642 84.6493C14.2953 73.847 15.8243 62.8806 20.0744 52.8587C24.3245 42.8368 31.1451 34.1145 39.8467 27.5736C48.5484 21.0326 58.8226 16.9048 69.6309 15.6074C80.4392 14.31 91.3984 15.889 101.401 20.1847" stroke="#8CBC43" stroke-linecap="round"/>
<path d="M119.537 32.1226C128.37 40.4949 134.536 51.2878 137.263 63.1489C139.989 75.0101 139.154 87.412 134.863 98.8009" stroke="#8CBC43" stroke-linecap="round"/>
</svg>
