<svg width="126" height="126" viewBox="0 0 126 126" fill="none" xmlns="http://www.w3.org/2000/svg">
<path d="M100.603 112.086C91.9614 118.706 81.7253 122.927 70.9292 124.323C60.1332 125.719 49.16 124.24 39.1188 120.035C29.0776 115.831 20.3244 109.05 13.7438 100.378C7.16323 91.7068 2.98862 81.4515 1.64195 70.6492C0.295285 59.847 1.82429 48.8806 6.07441 38.8587C10.3245 28.8368 17.1451 20.1145 25.8467 13.5735C34.5484 7.03256 44.8226 2.90476 55.6309 1.60735C66.4392 0.309945 77.3984 1.88893 87.4009 6.18469" stroke="white" stroke-linecap="round"/>
<path d="M115.703 30.661C122.068 41.0343 125.23 53.0552 124.794 65.2178C124.357 77.3804 120.341 89.1437 113.249 99.0339" stroke="white" stroke-linecap="round"/>
<path d="M115.703 30.661C122.068 41.0343 125.23 53.0552 124.794 65.2178C124.357 77.3804 120.341 89.1437 113.249 99.0339" stroke="white" stroke-linecap="round"/>
</svg>
