<svg width="756" height="1233" viewBox="0 0 756 1233" fill="none" xmlns="http://www.w3.org/2000/svg">
<g opacity="0.15">
<path d="M190.848 273.621C240.837 211.551 303.807 161.177 375.337 126.036C446.868 90.8942 525.224 71.8381 604.904 70.2052C684.583 68.5723 763.654 84.4023 836.564 116.584C909.474 148.765 974.456 196.517 1026.94 256.487" stroke="#1F1F1F" stroke-width="5" stroke-linecap="round"/>
<path d="M830.733 1092.82C713.155 1145.76 580.162 1153.38 457.307 1114.22C334.452 1075.06 230.402 991.879 165.15 880.662" stroke="#8CBC43" stroke-width="5" stroke-linecap="round"/>
<path d="M277.578 955.053C217.903 895.457 175.018 821.163 153.26 739.681C131.501 658.199 131.64 572.417 153.661 491.005C175.682 409.594 218.806 335.439 278.673 276.036C338.54 216.633 413.029 174.088 494.609 152.702C576.19 131.315 661.97 131.844 743.281 154.237C824.591 176.629 898.548 220.09 957.678 280.228C1016.81 340.365 1059.01 415.047 1080.03 496.724C1101.04 578.401 1100.12 664.178 1077.36 745.385" stroke="#8CBC43" stroke-width="5" stroke-linecap="round"/>
<path d="M580.614 1042.08C499.13 1035.3 421.302 1005.28 356.36 955.602" stroke="#8CBC43" stroke-width="5" stroke-linecap="round"/>
<path d="M471.763 213.725C548.728 186.118 631.995 181.164 711.69 199.45" stroke="#1F1F1F" stroke-width="5" stroke-linecap="round"/>
<path d="M918.326 987.76C845.172 1047.25 756.089 1083.83 662.239 1092.91C568.388 1101.99 473.944 1083.18 390.739 1038.82" stroke="#1F1F1F" stroke-width="5" stroke-linecap="round"/>
</g>
</svg>
