<svg width="692" height="1233" viewBox="0 0 692 1233" fill="none" xmlns="http://www.w3.org/2000/svg">
<g opacity="0.15">
<path d="M191.258 274.031C241.247 211.961 304.217 161.586 375.747 126.445C447.278 91.3036 525.634 72.2475 605.314 70.6146C684.993 68.9817 764.064 84.8118 836.975 116.993C909.885 149.174 974.866 196.927 1027.35 256.897" stroke="#1F1F1F" stroke-width="5" stroke-linecap="round"/>
<path d="M831.143 1093.23C713.565 1146.17 580.572 1153.79 457.717 1114.63C334.862 1075.47 230.812 992.288 165.56 881.072" stroke="#8CBC43" stroke-width="5" stroke-linecap="round"/>
<path d="M277.988 955.462C218.313 895.866 175.429 821.573 153.67 740.091C131.912 658.609 132.05 572.826 154.071 491.415C176.093 410.003 219.216 335.848 279.083 276.446C338.951 217.043 413.439 174.498 495.019 153.111C576.6 131.724 662.381 132.254 743.691 154.646C825.001 177.038 898.959 220.5 958.088 280.637C1017.22 340.774 1059.42 415.456 1080.44 497.133C1101.45 578.81 1100.53 664.588 1077.77 745.795" stroke="#8CBC43" stroke-width="5" stroke-linecap="round"/>
<path d="M581.024 1042.49C499.54 1035.71 421.712 1005.69 356.771 956.011" stroke="#8CBC43" stroke-width="5" stroke-linecap="round"/>
<path d="M472.173 214.134C549.138 186.527 632.405 181.573 712.1 199.86" stroke="#1F1F1F" stroke-width="5" stroke-linecap="round"/>
<path d="M918.736 988.169C845.582 1047.66 756.499 1084.23 662.649 1093.32C568.798 1102.4 474.354 1083.59 391.149 1039.23" stroke="#1F1F1F" stroke-width="5" stroke-linecap="round"/>
</g>
</svg>
