<svg width="596" height="1429" viewBox="0 0 596 1429" fill="none" xmlns="http://www.w3.org/2000/svg">
<g opacity="0.15">
<path d="M305.353 1040.75C224.873 940.003 184.462 813.069 191.884 684.337C199.307 555.606 254.04 434.158 345.566 343.329" stroke="#8CBC43" stroke-width="5" stroke-linecap="round"/>
<path d="M301.428 470.709C344.336 398.103 405.652 338.111 479.177 296.798C552.702 255.484 635.831 234.314 720.161 235.426C804.491 236.539 887.032 259.894 959.442 303.133C1031.85 346.371 1091.56 407.959 1132.54 481.672C1173.52 555.385 1194.31 638.61 1192.81 722.934C1191.32 807.258 1167.59 889.692 1124.02 961.904C1080.45 1034.12 1018.59 1093.55 944.69 1134.19C870.792 1174.83 787.473 1195.24 703.157 1193.36" stroke="#8CBC43" stroke-width="5" stroke-linecap="round"/>
<path d="M292.386 785.865C278.723 705.249 288.466 622.406 320.462 547.16" stroke="#8CBC43" stroke-width="5" stroke-linecap="round"/>
<path d="M428.88 1099.51C353.087 1043.42 295.532 966.21 263.424 877.556C231.317 788.902 226.086 692.744 248.387 601.13" stroke="#1F1F1F" stroke-width="5" stroke-linecap="round"/>
</g>
</svg>
