<svg width="533" height="751" viewBox="0 0 533 751" fill="none" xmlns="http://www.w3.org/2000/svg">
<g opacity="0.15">
<path d="M-99.7104 105.73C-60.3059 68.2445 -13.1729 39.8401 38.3786 22.511C89.93 5.18197 144.65 -0.651613 198.696 5.41994C252.743 11.4915 304.804 29.321 351.226 57.6564C397.647 85.9918 437.303 124.146 467.408 169.44" stroke="#1F1F1F" stroke-width="5" stroke-linecap="round"/>
<path d="M259.349 717.474C175.054 742.692 84.4136 735.87 4.8431 698.318C-74.7274 660.767 -137.614 595.135 -171.734 514.034" stroke="#8CBC43" stroke-width="5" stroke-linecap="round"/>
<path d="M-102.336 574.434C-137.326 528.76 -159.637 474.658 -167.015 417.597C-174.393 360.536 -166.576 302.538 -144.354 249.467C-122.132 196.395 -86.2933 150.131 -40.46 115.35C5.3733 80.5693 59.5765 58.5049 116.671 51.3873C173.765 44.2696 231.726 52.351 284.696 74.8145C337.665 97.278 383.766 133.327 418.337 179.319C452.909 225.31 474.726 279.613 481.583 336.739C488.44 393.865 480.095 451.789 457.39 504.656" stroke="#8CBC43" stroke-width="5" stroke-linecap="round"/>
<path d="M94.7735 660.489C40.2973 648.567 -9.61681 621.271 -49.0489 581.839" stroke="#8CBC43" stroke-width="5" stroke-linecap="round"/>
<path d="M95.7448 90.6802C150.261 78.9442 207 83.0898 259.232 102.626" stroke="#1F1F1F" stroke-width="5" stroke-linecap="round"/>
<path d="M328.023 654.243C273.197 687.885 209.661 704.599 145.378 702.292C81.0937 699.985 18.9201 678.758 -33.3535 641.272" stroke="#1F1F1F" stroke-width="5" stroke-linecap="round"/>
</g>
</svg>
