<svg width="1404" height="1946" viewBox="0 0 1404 1946" fill="none" xmlns="http://www.w3.org/2000/svg">
<g opacity="0.15">
<path d="M753.162 361.673C842.36 408.701 920.182 474.687 981.162 554.995C1042.14 635.303 1084.8 727.987 1106.15 826.539C1127.49 925.09 1127 1027.12 1104.71 1125.46C1082.43 1223.8 1038.88 1316.08 977.134 1395.8" stroke="#1F1F1F" stroke-width="5" stroke-linecap="round"/>
<path d="M-109.032 1354.91C-203.279 1221.72 -244.985 1058.41 -226.137 896.348C-207.289 734.284 -129.216 584.902 -6.91927 476.905" stroke="#8CBC43" stroke-width="5" stroke-linecap="round"/>
<path d="M-72.0904 634.529C-12.5426 545.964 69.331 474.689 165.255 427.909C261.178 381.129 367.752 360.502 474.202 368.113C580.653 375.724 683.208 411.303 771.501 471.254C859.793 531.205 930.694 613.403 977.036 709.538C1023.38 805.674 1043.52 912.341 1035.42 1018.76C1027.33 1125.17 991.281 1227.56 930.928 1315.58C870.575 1403.6 788.055 1474.12 691.709 1520.03C595.363 1565.93 488.606 1585.59 382.229 1577" stroke="#8CBC43" stroke-width="5" stroke-linecap="round"/>
<path d="M114.22 1411.34C30.3297 1350.76 -34.4241 1267.38 -72.3612 1171.1" stroke="#8CBC43" stroke-width="5" stroke-linecap="round"/>
<path d="M895.768 695.924C948.723 784.83 975.069 887.059 971.68 990.485" stroke="#1F1F1F" stroke-width="5" stroke-linecap="round"/>
<path d="M42.645 1438.26C-48.9753 1361.82 -116.003 1260.05 -150.039 1145.7C-184.076 1031.34 -183.608 909.478 -148.694 795.385" stroke="#1F1F1F" stroke-width="5" stroke-linecap="round"/>
</g>
</svg>
