<svg width="436" height="621" viewBox="0 0 436 621" fill="none" xmlns="http://www.w3.org/2000/svg">
<g opacity="0.15">
<path d="M85.9055 699.681C61.0572 573.152 83.8433 441.904 149.886 331.155C215.928 220.406 320.567 137.969 443.698 99.6833" stroke="#F9F9F9" stroke-width="5" stroke-linecap="round"/>
<path d="M345.715 192.276C417.307 147.697 499.4 122.808 583.694 120.126C667.989 117.443 751.498 137.062 825.779 176.999C900.061 216.936 962.483 275.776 1006.74 347.571C1050.99 419.366 1075.5 501.571 1077.8 585.876C1080.1 670.182 1060.1 753.601 1019.82 827.7C979.548 901.799 920.425 963.952 848.429 1007.88C776.433 1051.8 694.117 1075.94 609.802 1077.85C525.486 1079.77 442.16 1059.39 368.245 1018.78" stroke="#F9F9F9" stroke-width="5" stroke-linecap="round"/>
<path d="M192.131 467.624C217.247 389.812 264.153 320.835 327.286 268.875" stroke="#F9F9F9" stroke-width="5" stroke-linecap="round"/>
<path d="M168.327 808.849C127.009 724.095 111.622 629.032 124.093 535.572C136.563 442.111 176.337 354.409 238.432 283.453" stroke="#F9F9F9" stroke-width="5" stroke-linecap="round"/>
</g>
</svg>
