<svg width="794" height="971" viewBox="0 0 794 971" fill="none" xmlns="http://www.w3.org/2000/svg">
<g opacity="0.15">
<path d="M821.345 693.225C791.006 742.264 750.3 784.068 702.084 815.699C653.868 847.331 599.313 868.024 542.248 876.326C485.183 884.627 426.992 880.336 371.763 863.753C316.533 847.169 265.603 818.696 222.55 780.334" stroke="#1F1F1F" stroke-width="5" stroke-linecap="round"/>
<path d="M288.619 162.302C368.299 113.776 463.101 96.4068 554.809 113.532C646.517 130.657 728.662 181.068 785.46 255.079" stroke="#8CBC43" stroke-width="5" stroke-linecap="round"/>
<path d="M698.052 211.774C746.22 249.216 783.649 298.711 806.557 355.256C829.464 411.801 837.038 473.391 828.513 533.801C819.987 594.211 795.664 651.299 758.003 699.296C720.342 747.293 670.676 784.496 614.028 807.146C557.379 829.795 495.755 837.088 435.385 828.288C375.014 819.487 318.037 794.904 270.213 757.024C222.388 719.144 185.412 669.31 163.02 612.559C140.629 555.808 133.617 494.151 142.693 433.821" stroke="#8CBC43" stroke-width="5" stroke-linecap="round"/>
<path d="M472.739 176.481C531.824 174.064 590.362 188.644 641.411 218.49" stroke="#8CBC43" stroke-width="5" stroke-linecap="round"/>
<path d="M624.935 761.231C572.169 787.926 512.854 798.928 454.025 792.932" stroke="#1F1F1F" stroke-width="5" stroke-linecap="round"/>
<path d="M235.172 245.61C282.364 196.364 343.039 162.139 409.596 147.224C476.153 132.308 545.632 137.366 609.327 161.763" stroke="#1F1F1F" stroke-width="5" stroke-linecap="round"/>
</g>
</svg>
