<svg width="325" height="702" viewBox="0 0 325 702" fill="none" xmlns="http://www.w3.org/2000/svg">
<path d="M277.59 499.223C278.4 498.576 284.146 496.564 286.128 496.233C290.574 495.491 293.646 496.06 295.571 497.983C297.279 499.688 297.864 501.044 298.332 504.389C298.97 508.936 299.063 511.065 298.769 514.31C298.619 515.953 298.374 519.54 298.225 522.279C297.879 528.612 297.527 532.148 296.993 534.66C296.452 537.204 295.946 541.146 295.946 542.821C295.946 543.536 295.563 545.45 295.094 547.075C294.626 548.7 294.242 550.38 294.24 550.809C294.24 551.237 293.854 552.788 293.385 554.253C292.915 555.719 292.531 557.076 292.531 557.268C292.531 558.106 289.442 565.785 287.428 569.953C284.944 575.092 281.148 580.967 277.956 584.61C271.408 592.085 263.427 598.218 253.256 603.59C249.9 605.363 246.247 607.37 243.054 609.194C242.061 609.762 241.201 610.226 241.143 610.226C241.086 610.226 239.785 610.977 238.254 611.895C236.722 612.813 234.892 613.855 234.188 614.211C233.484 614.567 231.947 615.461 230.773 616.199C229.599 616.937 225.372 619.564 221.381 622.038C215.136 625.908 206.338 631.582 200.89 635.254C198.252 637.032 193.258 640.625 189.23 643.643C184.684 647.05 184.247 647.312 183.509 647.078C182.244 646.676 182.04 645.818 182.21 641.613C182.653 630.652 182.923 627.434 183.646 624.457C184.046 622.813 184.375 620.62 184.378 619.582C184.381 618.305 184.658 616.801 185.237 614.922C185.706 613.397 186.087 611.748 186.083 611.258C186.079 610.769 186.52 608.895 187.064 607.095C191.638 591.936 192.647 589.254 197.658 578.918C206.553 560.572 219.7 543.785 236.839 528.885C252.022 515.688 265.541 505.672 274.744 500.805C276.152 500.059 277.433 499.348 277.59 499.223Z" fill="#78852C"/>
<path d="M286.611 211.005C288.503 208.217 289.752 207.257 292.777 206.262C294.502 205.696 295.451 205.761 297.9 206.615C302.102 208.081 307.087 213.059 310.558 219.255C312.809 223.275 313.375 224.38 314.434 226.834C317.512 233.962 322.082 249.74 322.096 253.286C322.099 253.98 322.427 255.893 322.826 257.537C323.819 261.639 324.18 268.461 324.18 283.153C324.18 297.686 323.824 304.53 322.823 309.189C322.421 311.064 322.091 313.198 322.091 313.931C322.091 315.324 321.811 316.897 320.423 323.284C319.159 329.1 318.156 333.157 317.396 335.523C317.02 336.697 316.52 338.49 316.287 339.507C315.483 343.016 311.675 353.565 308.067 362.277C305.803 367.746 299.994 379.466 297.206 384.193C296.236 385.836 294.5 388.782 293.347 390.739C288.296 399.315 279.721 411.247 271.768 420.765C264.281 429.725 260.104 434.203 244.821 449.65C237.307 457.245 229.678 465.061 227.867 467.017C220.654 474.813 208.099 489.546 202.776 496.462C198.406 502.139 191.562 511.304 189.705 513.966C186.038 519.223 176.898 533.458 175.808 535.611C175.452 536.315 174.404 538.152 173.481 539.693C170.438 544.771 162.217 561.806 160.256 567.099C159.858 568.174 159.147 570.078 158.678 571.331C156.607 576.85 153.038 588.855 153.038 590.3C153.038 590.712 152.702 592.312 152.291 593.856C151.88 595.399 151.44 597.815 151.312 599.223C151.185 600.632 150.938 602.874 150.765 604.204C149.665 612.656 149.464 616.14 149.874 619.684C150.057 621.267 150.34 623.779 150.502 625.266C151.298 632.542 152.326 637.332 154.405 643.44C155.777 647.47 158.36 653.043 160.495 656.574C162.903 660.558 163.15 661.413 161.897 661.413C160.828 661.413 151.357 654.749 146.398 650.508C138.442 643.704 128.914 633.01 123.146 624.412C117.738 616.352 112.985 606.961 109.821 598.085C108.283 593.772 106.698 588.636 106.483 587.269C106.384 586.643 105.933 584.676 105.48 582.898C105.027 581.12 104.656 579.132 104.656 578.48C104.656 577.828 104.312 575.761 103.89 573.886C103.128 570.489 103.124 570.428 103.021 556.815C102.913 542.628 103.026 540.588 104.254 534.667C104.475 533.6 104.661 532.063 104.666 531.252C104.672 530.44 104.852 528.944 105.065 527.926C106.113 522.939 107.006 519.044 107.547 517.111C107.876 515.936 108.3 514.271 108.489 513.41C109.055 510.84 113.651 496.619 115.389 492.064C119.531 481.202 127.468 464.652 133.201 454.921C138.551 445.84 141.353 441.205 143.743 437.482C147.169 432.144 157.851 416.455 161.615 411.232C167.189 403.496 168.267 402.031 176.375 391.174C180.837 385.2 184.888 379.744 185.379 379.051C185.87 378.357 187.707 375.932 189.46 373.662C191.213 371.392 194.397 367.244 196.536 364.444C198.675 361.643 202.832 356.2 205.774 352.347C208.716 348.495 211.79 344.393 212.605 343.233C213.419 342.073 216.198 338.279 218.781 334.801C224.926 326.527 230.432 318.863 234.11 313.465C242.094 301.747 248.055 292.484 252.974 284.149C259.624 272.88 260.926 270.539 265.003 262.518C271.261 250.207 277.717 234.912 280.742 225.232C283.49 216.438 284.366 214.314 286.611 211.005Z" fill="#657A29"/>
<path fill-rule="evenodd" clip-rule="evenodd" d="M143.111 0.359246C143.111 1.06539 144.109 2.19362 150.22 8.39209C156.931 15.1985 158.373 16.8206 162.493 22.1962C168.678 30.2672 174.118 39.6295 177.689 48.348C179.415 52.564 182.021 60.6063 182.532 63.2985C182.768 64.5372 183.214 66.3704 183.523 67.3729C183.833 68.3753 184.216 70.564 184.374 72.2367C184.533 73.9094 184.941 76.8149 185.281 78.6934C185.814 81.64 185.915 83.4206 186.012 91.6692C186.121 100.903 186.1 101.382 185.388 105.677C184.982 108.123 184.535 111.635 184.395 113.481C184.255 115.327 183.874 117.881 183.549 119.156C183.223 120.431 182.823 122.438 182.659 123.615C182.358 125.776 181.122 130.901 179.009 138.748C175.265 152.647 168.049 171.646 159.82 189.268C155.884 197.698 146.705 215.643 141.258 225.558C133.706 239.303 120.687 262.381 112.677 276.22C111.228 278.725 107.671 284.936 104.773 290.024C101.875 295.112 98.7637 300.555 97.859 302.12C96.9542 303.686 94.709 307.592 92.8696 310.801C91.03 314.01 88.308 318.749 86.8207 321.332C85.3331 323.915 82.8374 328.27 81.2744 331.009C78.5684 335.753 75.9441 340.264 71.6711 347.517C70.6107 349.318 68.5599 352.84 67.1135 355.344C63.6408 361.359 59.2779 368.807 55.0263 375.979C43.4325 395.537 40.1661 401.433 32.46 416.714C26.9515 427.637 22.3732 437.906 17.9024 449.368C14.4718 458.163 9.26505 474.242 7.79623 480.577C7.43336 482.143 6.92278 484.32 6.66208 485.416C4.77006 493.365 4.2111 495.95 3.93903 498.012C3.76827 499.305 3.31575 501.866 2.93325 503.705C2.55075 505.543 2.23427 508.008 2.23 509.182C2.22573 510.356 2.09254 512.213 1.93402 513.309C0.618595 522.408 0.525808 523.902 0.528369 535.936C0.530931 547.579 0.814681 552.555 1.69552 556.396C1.86116 557.118 2.10164 559.247 2.23 561.125C2.35807 563.004 2.72577 565.565 3.0468 566.818C3.36783 568.07 3.77709 570.055 3.95582 571.229C5.04954 578.406 9.50952 592.542 13.9686 602.964C18.0754 612.563 22.0115 619.83 27.911 628.707C36.2216 641.212 45.0217 651.262 56.3348 661.169C62.5929 666.65 65.8539 669.164 72.7156 673.799C86.2714 682.956 102.092 690.401 118.112 695.163C122.448 696.452 130.651 698.454 131.595 698.454C132.097 698.454 133.773 698.783 135.319 699.183C137.041 699.63 139.564 700.012 141.83 700.17C143.865 700.311 147.259 700.708 149.372 701.052C152.649 701.585 154.664 701.695 163.063 701.796C172.821 701.913 172.969 701.906 179.232 701.038C182.709 700.556 186.33 700.162 187.279 700.162C188.228 700.162 190.464 699.835 192.247 699.435C194.03 699.035 196.607 698.527 197.973 698.306C201.941 697.665 213.487 694.44 218.53 692.564C221.172 691.582 227.232 688.623 228.333 687.777C230.021 686.482 227.074 686.777 216.664 688.945C214.777 689.338 211.648 689.78 209.712 689.927C207.776 690.074 205.99 690.257 205.744 690.335C205.497 690.412 203.119 690.734 200.458 691.048C193.037 691.927 188.701 691.811 179.044 690.476C176.815 690.168 174.189 689.913 173.21 689.91C172.23 689.907 170.596 689.719 169.579 689.493C168.561 689.267 166.179 688.763 164.285 688.374C160.429 687.58 153.818 685.715 148.156 683.823C134.704 679.329 118.838 670.395 107.251 660.789C104.008 658.1 94.9819 649.191 91.9219 645.657C86.1274 638.966 81.129 631.372 76.6582 622.466C74.9426 619.047 71.4196 611.018 70.4229 608.253C68.5861 603.159 66.1656 594.295 65.2867 589.445C64.9039 587.331 64.3256 584.386 64.0015 582.899C63.6773 581.411 63.2894 578.145 63.1391 575.641C62.9891 573.136 62.6715 569.294 62.4336 567.102C61.8476 561.709 61.8888 556.491 62.5688 550.025C62.8815 547.051 63.1399 543.592 63.1428 542.34C63.149 539.801 63.6795 535.745 64.539 531.667C64.8527 530.18 65.2378 527.81 65.3949 526.401C65.5522 524.993 65.9968 522.495 66.383 520.851C66.7695 519.208 67.5518 515.878 68.1219 513.451C70.2846 504.245 73.4138 494.147 77.415 483.463C83.7778 466.473 92.0631 448.721 99.4174 436.319C100.392 434.675 102.897 430.385 104.983 426.784C107.07 423.184 109.949 418.253 111.381 415.826C112.814 413.4 115.32 409.128 116.951 406.333C118.582 403.539 121.141 399.184 122.639 396.656C125.889 391.171 132.222 380.448 135.944 374.129C137.419 371.625 140.256 366.822 142.248 363.456C146.72 355.899 150.651 349.215 154.521 342.587C156.15 339.797 158.554 335.699 159.862 333.479C162.841 328.427 166.002 323.012 168.449 318.771C174.408 308.443 176.076 305.556 177.492 303.117C183.781 292.288 188.326 284.262 194.419 273.231C200.716 261.831 203.202 256.88 208.569 245.054C211.852 237.818 213.897 232.941 217.103 224.704C219.476 218.605 223.893 206.082 224.768 202.973C225.062 201.932 225.908 199.031 226.651 196.526C227.393 194.022 228.225 191.012 228.499 189.838C228.773 188.664 229.329 186.358 229.735 184.714C231.157 178.952 231.692 176.588 231.958 174.895C232.262 172.958 232.814 169.918 233.431 166.783C233.662 165.609 233.996 163.048 234.172 161.091C234.349 159.134 234.733 155.932 235.024 153.975C235.936 147.85 236.175 144.063 236.175 135.76C236.175 127.582 235.909 123.145 235.141 118.54C234.907 117.131 234.468 114.057 234.167 111.709C232.572 99.2728 227.987 84.4236 221.952 72.1471C208.743 45.2752 185.436 22.1555 153.423 4.16861C150.778 2.6826 147.828 1.13569 146.867 0.731247C144.984 -0.0614209 143.111 -0.246995 143.111 0.359246Z" fill="#90BD21"/>
</svg>
