<svg width="114" height="42" viewBox="0 0 114 42" fill="none" xmlns="http://www.w3.org/2000/svg">
<path d="M54.4356 13.4513C55.9911 13.5709 57.1338 13.9299 57.8638 14.5282C58.5937 15.1265 58.9586 15.8325 58.9586 16.6462C58.9586 17.759 58.5219 18.6205 57.6484 19.2308C56.7749 19.8291 55.5603 20.1282 54.0048 20.1282C53.6578 20.1282 53.3646 20.1222 53.1253 20.1103C52.3355 20.0863 51.5638 20.0744 50.8099 20.0744C49.5774 20.0744 48.6561 20.0923 48.0458 20.1282V19.7692C48.4407 19.7453 48.7279 19.6974 48.9073 19.6256C49.0988 19.5538 49.2244 19.4162 49.2843 19.2128C49.3561 19.0094 49.392 18.6803 49.392 18.2256V9.32307C49.392 8.86837 49.3561 8.53931 49.2843 8.33589C49.2244 8.13247 49.0988 7.99486 48.9073 7.92307C48.7279 7.85127 48.4407 7.80341 48.0458 7.77948V7.4205C48.6561 7.4564 49.5655 7.47435 50.774 7.47435L52.7663 7.4564C53.0056 7.44444 53.2808 7.43845 53.592 7.43845C55.0279 7.43845 56.1227 7.69572 56.8766 8.21025C57.6424 8.72478 58.0253 9.40683 58.0253 10.2564C58.0253 10.9504 57.7202 11.5966 57.1099 12.1949C56.5116 12.7932 55.6202 13.2 54.4356 13.4154V13.4513ZM53.3586 7.77948C53.0356 7.77948 52.7962 7.82136 52.6407 7.90512C52.4971 7.98888 52.3954 8.13845 52.3355 8.35384C52.2757 8.56922 52.2458 8.8923 52.2458 9.32307V13.3795H53.0176C53.7954 13.3795 54.3398 13.1162 54.6509 12.5897C54.962 12.0513 55.1176 11.3393 55.1176 10.4538C55.1176 9.5564 54.974 8.88632 54.6868 8.44358C54.4116 8.00085 53.9689 7.77948 53.3586 7.77948ZM53.4843 19.7154C55.1475 19.7154 55.9791 18.6684 55.9791 16.5744C55.9791 15.6291 55.7398 14.9111 55.2612 14.4205C54.7826 13.9299 54.0287 13.6846 52.9997 13.6846H52.2458V18.2256C52.2458 18.6564 52.2757 18.9735 52.3355 19.1769C52.3954 19.3803 52.5091 19.5239 52.6766 19.6077C52.8561 19.6795 53.1253 19.7154 53.4843 19.7154ZM70.2161 18.6205C70.3717 19.0154 70.5512 19.3026 70.7546 19.4821C70.958 19.6615 71.1554 19.7573 71.3469 19.7692V20.1282C70.629 20.0923 69.7195 20.0744 68.6187 20.0744C67.3982 20.0744 66.4888 20.0923 65.8905 20.1282V19.7692C66.3452 19.7453 66.6683 19.6915 66.8597 19.6077C67.0512 19.512 67.1469 19.3504 67.1469 19.1231C67.1469 18.9077 67.0751 18.6205 66.9315 18.2615L65.8546 15.3179H61.9418L61.4751 16.5564C61.1401 17.4179 60.9725 18.082 60.9725 18.5487C60.9725 18.9915 61.1042 19.3026 61.3674 19.4821C61.6426 19.6496 62.0435 19.7453 62.57 19.7692V20.1282C61.7563 20.0923 61.0144 20.0744 60.3443 20.0744C59.7939 20.0744 59.3392 20.0923 58.9802 20.1282V19.7692C59.5666 19.6615 60.0811 19.0333 60.5238 17.8846L64.6161 7.38461C64.7478 7.39657 64.9572 7.40255 65.2443 7.40255C65.5315 7.40255 65.7349 7.39657 65.8546 7.38461L70.2161 18.6205ZM65.7289 14.959L63.952 10.1128L62.0854 14.959H65.7289ZM77.027 7.77948C76.6201 7.80341 76.327 7.85127 76.1475 7.92307C75.968 7.99486 75.8424 8.13247 75.7706 8.33589C75.7107 8.53931 75.6808 8.86837 75.6808 9.32307V18.2256C75.6808 18.6803 75.7107 19.0094 75.7706 19.2128C75.8424 19.4162 75.968 19.5538 76.1475 19.6256C76.327 19.6974 76.6201 19.7453 77.027 19.7692V20.1282C76.3808 20.0923 75.4774 20.0744 74.3167 20.0744C73.0364 20.0744 72.0911 20.0923 71.4808 20.1282V19.7692C71.8757 19.7453 72.1629 19.6974 72.3424 19.6256C72.5338 19.5538 72.6594 19.4162 72.7193 19.2128C72.7911 19.0094 72.827 18.6803 72.827 18.2256V9.32307C72.827 8.86837 72.7911 8.53931 72.7193 8.33589C72.6594 8.13247 72.5338 7.99486 72.3424 7.92307C72.1629 7.85127 71.8757 7.80341 71.4808 7.77948V7.4205C72.0911 7.4564 73.0364 7.47435 74.3167 7.47435C75.4774 7.47435 76.3808 7.4564 77.027 7.4205V7.77948ZM89.3214 18.6744C89.5009 18.9496 89.6864 19.1709 89.8778 19.3385C90.0693 19.506 90.3146 19.6496 90.6137 19.7692V20.1282C89.7761 20.0923 88.8428 20.0744 87.8137 20.0744C87.024 20.0744 86.2642 20.0923 85.5342 20.1282V19.7692C85.8693 19.7453 86.1086 19.7094 86.2522 19.6615C86.4078 19.6137 86.4855 19.5299 86.4855 19.4103C86.4855 19.3145 86.4197 19.165 86.2881 18.9615L83.6855 14.7436C83.4462 14.3607 83.2428 14.1034 83.0753 13.9718C82.9197 13.8402 82.7043 13.7624 82.4291 13.7385V18.2256C82.4291 18.6803 82.459 19.0094 82.5189 19.2128C82.5907 19.4162 82.7163 19.5538 82.8958 19.6256C83.0753 19.6974 83.3684 19.7453 83.7753 19.7692V20.1282C83.1291 20.0923 82.2257 20.0744 81.065 20.0744C79.7847 20.0744 78.8394 20.0923 78.2291 20.1282V19.7692C78.624 19.7453 78.9112 19.6974 79.0907 19.6256C79.2821 19.5538 79.4077 19.4162 79.4676 19.2128C79.5394 19.0094 79.5753 18.6803 79.5753 18.2256V9.32307C79.5753 8.86837 79.5394 8.53931 79.4676 8.33589C79.4077 8.13247 79.2821 7.99486 79.0907 7.92307C78.9112 7.85127 78.624 7.80341 78.2291 7.77948V7.4205C78.8394 7.4564 79.7847 7.47435 81.065 7.47435C82.2257 7.47435 83.1291 7.4564 83.7753 7.4205V7.77948C83.3684 7.80341 83.0753 7.85127 82.8958 7.92307C82.7163 7.99486 82.5907 8.13247 82.5189 8.33589C82.459 8.53931 82.4291 8.86837 82.4291 9.32307V13.3615C82.9078 13.3376 83.3445 13.194 83.7394 12.9308C84.1342 12.6675 84.583 12.2487 85.0855 11.6744L86.1445 10.4C86.6949 9.7658 86.9701 9.20939 86.9701 8.73076C86.9701 8.44358 86.8505 8.21623 86.6112 8.04871C86.3838 7.88119 86.0607 7.78546 85.6419 7.76153V7.4205C86.5154 7.4564 87.4009 7.47435 88.2984 7.47435C88.9924 7.47435 89.5548 7.4564 89.9855 7.4205V7.76153C89.0283 7.98888 88.1607 8.56324 87.383 9.48461L85.1394 12.159L89.3214 18.6744ZM101.399 18.6205C101.554 19.0154 101.734 19.3026 101.937 19.4821C102.14 19.6615 102.338 19.7573 102.529 19.7692V20.1282C101.811 20.0923 100.902 20.0744 99.8011 20.0744C98.5806 20.0744 97.6712 20.0923 97.0729 20.1282V19.7692C97.5276 19.7453 97.8507 19.6915 98.0421 19.6077C98.2336 19.512 98.3293 19.3504 98.3293 19.1231C98.3293 18.9077 98.2575 18.6205 98.1139 18.2615L97.037 15.3179H93.1242L92.6575 16.5564C92.3225 17.4179 92.1549 18.082 92.1549 18.5487C92.1549 18.9915 92.2866 19.3026 92.5498 19.4821C92.825 19.6496 93.2259 19.7453 93.7524 19.7692V20.1282C92.9387 20.0923 92.1968 20.0744 91.5267 20.0744C90.9763 20.0744 90.5216 20.0923 90.1626 20.1282V19.7692C90.749 19.6615 91.2635 19.0333 91.7062 17.8846L95.7985 7.38461C95.9302 7.39657 96.1396 7.40255 96.4267 7.40255C96.7139 7.40255 96.9173 7.39657 97.037 7.38461L101.399 18.6205ZM96.9114 14.959L95.1344 10.1128L93.2678 14.959H96.9114ZM108.317 7.77948C107.886 7.80341 107.569 7.85127 107.366 7.92307C107.174 7.99486 107.043 8.13247 106.971 8.33589C106.899 8.53931 106.863 8.86837 106.863 9.32307V18.441C106.863 18.8239 106.893 19.1051 106.953 19.2846C107.013 19.4521 107.115 19.5658 107.258 19.6256C107.414 19.6855 107.659 19.7154 107.994 19.7154H108.873C109.687 19.7154 110.387 19.3504 110.973 18.6205C111.572 17.8906 111.961 16.9214 112.14 15.7128H112.553C112.517 16.1197 112.499 16.6462 112.499 17.2923C112.499 18.441 112.541 19.3863 112.625 20.1282C111.811 20.0923 110.441 20.0744 108.515 20.0744C105.906 20.0744 103.956 20.0923 102.663 20.1282V19.7692C103.058 19.7453 103.345 19.6974 103.525 19.6256C103.716 19.5538 103.842 19.4162 103.902 19.2128C103.973 19.0094 104.009 18.6803 104.009 18.2256V9.32307C104.009 8.86837 103.973 8.53931 103.902 8.33589C103.842 8.13247 103.716 7.99486 103.525 7.92307C103.345 7.85127 103.058 7.80341 102.663 7.77948V7.4205C103.273 7.4564 104.219 7.47435 105.499 7.47435C106.72 7.47435 107.659 7.4564 108.317 7.4205V7.77948ZM61.2022 25.7795C60.7954 25.8034 60.5022 25.8513 60.3227 25.9231C60.1432 25.9949 60.0176 26.1325 59.9458 26.3359C59.886 26.5393 59.8561 26.8684 59.8561 27.3231V36.2256C59.8561 36.6803 59.886 37.0094 59.9458 37.2128C60.0176 37.4162 60.1432 37.5538 60.3227 37.6256C60.5022 37.6974 60.7954 37.7453 61.2022 37.7692V38.1282C60.6159 38.0923 59.7065 38.0744 58.474 38.0744C57.2655 38.0744 56.3262 38.0923 55.6561 38.1282V37.7692C56.0509 37.7453 56.3381 37.6974 56.5176 37.6256C56.7091 37.5538 56.8347 37.4162 56.8945 37.2128C56.9663 37.0094 57.0022 36.6803 57.0022 36.2256V31.9179H52.2458V36.2256C52.2458 36.6803 52.2757 37.0094 52.3355 37.2128C52.4073 37.4162 52.533 37.5538 52.7125 37.6256C52.892 37.6974 53.1851 37.7453 53.592 37.7692V38.1282C52.9458 38.0923 52.0424 38.0744 50.8817 38.0744C49.6014 38.0744 48.6561 38.0923 48.0458 38.1282V37.7692C48.4407 37.7453 48.7279 37.6974 48.9073 37.6256C49.0988 37.5538 49.2244 37.4162 49.2843 37.2128C49.3561 37.0094 49.392 36.6803 49.392 36.2256V27.3231C49.392 26.8684 49.3561 26.5393 49.2843 26.3359C49.2244 26.1325 49.0988 25.9949 48.9073 25.9231C48.7279 25.8513 48.4407 25.8034 48.0458 25.7795V25.4205C48.6561 25.4564 49.6014 25.4743 50.8817 25.4743C52.0424 25.4743 52.9458 25.4564 53.592 25.4205V25.7795C53.1851 25.8034 52.892 25.8513 52.7125 25.9231C52.533 25.9949 52.4073 26.1325 52.3355 26.3359C52.2757 26.5393 52.2458 26.8684 52.2458 27.3231V31.559H57.0022V27.3231C57.0022 26.8684 56.9663 26.5393 56.8945 26.3359C56.8347 26.1325 56.7091 25.9949 56.5176 25.9231C56.3381 25.8513 56.0509 25.8034 55.6561 25.7795V25.4205C56.3262 25.4564 57.2655 25.4743 58.474 25.4743C59.7065 25.4743 60.6159 25.4564 61.2022 25.4205V25.7795ZM72.2372 35.4C72.2372 36.5009 72.2791 37.4103 72.3628 38.1282C71.5492 38.0923 70.1791 38.0744 68.2526 38.0744C65.644 38.0744 63.6936 38.0923 62.4013 38.1282V37.7692C62.7962 37.7453 63.0833 37.6974 63.2628 37.6256C63.4543 37.5538 63.5799 37.4162 63.6397 37.2128C63.7115 37.0094 63.7474 36.6803 63.7474 36.2256V27.3231C63.7474 26.8684 63.7115 26.5393 63.6397 26.3359C63.5799 26.1325 63.4543 25.9949 63.2628 25.9231C63.0833 25.8513 62.7962 25.8034 62.4013 25.7795V25.4205C63.6936 25.4564 65.644 25.4743 68.2526 25.4743C70.0115 25.4743 71.262 25.4564 72.0039 25.4205C71.9201 26.4137 71.8782 27.2991 71.8782 28.0769C71.8782 28.6034 71.8962 29.0102 71.9321 29.2974H71.5192C71.3397 28.0171 71.0167 27.1197 70.55 26.6051C70.0833 26.0906 69.4252 25.8333 68.5756 25.8333H67.8397C67.4688 25.8333 67.1996 25.8632 67.0321 25.9231C66.8645 25.9829 66.7509 26.1026 66.691 26.282C66.6312 26.4496 66.6013 26.7248 66.6013 27.1077V31.559H67.1756C67.8098 31.559 68.2885 31.3256 68.6115 30.859C68.9466 30.3923 69.1799 29.8359 69.3115 29.1897H69.7244C69.6885 29.6923 69.6705 30.2547 69.6705 30.8769V31.7385C69.6705 32.3487 69.7064 33.1983 69.7782 34.2872H69.3654C69.1141 32.7077 68.3842 31.9179 67.1756 31.9179H66.6013V36.441C66.6013 36.8239 66.6312 37.1051 66.691 37.2846C66.7509 37.4521 66.8645 37.5658 67.0321 37.6256C67.1996 37.6855 67.4688 37.7154 67.8397 37.7154H68.7192C69.5688 37.7154 70.2509 37.4282 70.7654 36.8538C71.2919 36.2675 71.6628 35.2803 71.8782 33.8923H72.291C72.2551 34.2872 72.2372 34.7897 72.2372 35.4ZM85.9462 37.3385C85.6232 37.7094 85.2761 37.9726 84.9052 38.1282C84.5343 38.2957 84.0855 38.3795 83.559 38.3795C82.865 38.3795 82.3146 38.2359 81.9078 37.9487C81.5129 37.6496 81.2556 37.147 81.136 36.441L80.8129 34.6462C80.6573 33.7726 80.4659 33.1325 80.2385 32.7256C80.0231 32.3068 79.6582 32.0974 79.1437 32.0974H77.977V36.2256C77.977 36.6803 78.0069 37.0094 78.0667 37.2128C78.1385 37.4162 78.2642 37.5538 78.4437 37.6256C78.6231 37.6974 78.9163 37.7453 79.3231 37.7692V38.1282C78.677 38.0923 77.7736 38.0744 76.6129 38.0744C75.3325 38.0744 74.3872 38.0923 73.777 38.1282V37.7692C74.1719 37.7453 74.459 37.6974 74.6385 37.6256C74.83 37.5538 74.9556 37.4162 75.0155 37.2128C75.0872 37.0094 75.1231 36.6803 75.1231 36.2256V27.3231C75.1231 26.8684 75.0872 26.5393 75.0155 26.3359C74.9556 26.1325 74.83 25.9949 74.6385 25.9231C74.459 25.8513 74.1719 25.8034 73.777 25.7795V25.4205C74.3872 25.4564 75.2966 25.4743 76.5052 25.4743L78.4975 25.4564C78.7368 25.4444 79.012 25.4385 79.3231 25.4385C80.9744 25.4385 82.2129 25.7077 83.0385 26.2461C83.8761 26.7846 84.2949 27.5564 84.2949 28.5615C84.2949 29.4111 83.9838 30.159 83.3616 30.8051C82.7394 31.4513 81.7103 31.8581 80.2744 32.0256C81.3514 32.1214 82.1531 32.3547 82.6796 32.7256C83.2061 33.0966 83.5471 33.653 83.7026 34.3949L84.1155 36.2436C84.2112 36.7222 84.3189 37.0573 84.4385 37.2487C84.5702 37.4402 84.7496 37.5359 84.977 37.5359C85.1206 37.5239 85.2402 37.488 85.336 37.4282C85.4437 37.3684 85.5633 37.2667 85.6949 37.1231L85.9462 37.3385ZM79.0898 25.7795C78.7667 25.7795 78.5274 25.8214 78.3719 25.9051C78.2283 25.9889 78.1266 26.1385 78.0667 26.3538C78.0069 26.5692 77.977 26.8923 77.977 27.3231V31.7385H78.7488C79.73 31.7385 80.4001 31.4812 80.759 30.9667C81.13 30.4402 81.3155 29.7043 81.3155 28.759C81.3155 27.7778 81.142 27.0359 80.7949 26.5333C80.4479 26.0308 79.8796 25.7795 79.0898 25.7795ZM92.5941 31.4513C94.1497 31.5709 95.2924 31.9299 96.0223 32.5282C96.7523 33.1265 97.1172 33.8325 97.1172 34.6462C97.1172 35.759 96.6805 36.6205 95.807 37.2308C94.9334 37.8291 93.7189 38.1282 92.1634 38.1282C91.8164 38.1282 91.5232 38.1222 91.2839 38.1103C90.4941 38.0863 89.7223 38.0744 88.9685 38.0744C87.736 38.0744 86.8146 38.0923 86.2044 38.1282V37.7692C86.5993 37.7453 86.8864 37.6974 87.0659 37.6256C87.2574 37.5538 87.383 37.4162 87.4428 37.2128C87.5146 37.0094 87.5505 36.6803 87.5505 36.2256V27.3231C87.5505 26.8684 87.5146 26.5393 87.4428 26.3359C87.383 26.1325 87.2574 25.9949 87.0659 25.9231C86.8864 25.8513 86.5993 25.8034 86.2044 25.7795V25.4205C86.8146 25.4564 87.724 25.4743 88.9326 25.4743L90.9249 25.4564C91.1642 25.4444 91.4394 25.4385 91.7505 25.4385C93.1864 25.4385 94.2813 25.6957 95.0352 26.2102C95.801 26.7248 96.1839 27.4068 96.1839 28.2564C96.1839 28.9504 95.8787 29.5966 95.2685 30.1949C94.6702 30.7932 93.7787 31.2 92.5941 31.4154V31.4513ZM91.5172 25.7795C91.1941 25.7795 90.9548 25.8214 90.7993 25.9051C90.6557 25.9889 90.554 26.1385 90.4941 26.3538C90.4343 26.5692 90.4044 26.8923 90.4044 27.3231V31.3795H91.1762C91.954 31.3795 92.4984 31.1162 92.8095 30.5897C93.1206 30.0513 93.2762 29.3393 93.2762 28.4538C93.2762 27.5564 93.1326 26.8863 92.8454 26.4436C92.5702 26.0008 92.1275 25.7795 91.5172 25.7795ZM91.6428 37.7154C93.3061 37.7154 94.1377 36.6684 94.1377 34.5744C94.1377 33.6291 93.8984 32.9111 93.4198 32.4205C92.9411 31.9299 92.1873 31.6846 91.1582 31.6846H90.4044V36.2256C90.4044 36.6564 90.4343 36.9735 90.4941 37.1769C90.554 37.3803 90.6676 37.5239 90.8352 37.6077C91.0146 37.6795 91.2839 37.7154 91.6428 37.7154ZM102.751 25.1872C103.373 25.1872 103.87 25.247 104.241 25.3667C104.612 25.4863 104.988 25.6598 105.371 25.8872C105.503 25.959 105.617 26.0188 105.712 26.0667C105.82 26.1145 105.91 26.1385 105.982 26.1385C106.089 26.1385 106.173 26.0786 106.233 25.959C106.293 25.8273 106.341 25.6239 106.377 25.3487H106.789C106.73 26.1504 106.7 27.5145 106.7 29.441H106.287C106.239 28.7949 106.089 28.1786 105.838 27.5923C105.599 27.006 105.252 26.5333 104.797 26.1744C104.354 25.8034 103.834 25.6179 103.235 25.6179C102.649 25.6179 102.171 25.7855 101.8 26.1205C101.441 26.4436 101.261 26.8863 101.261 27.4487C101.261 27.8675 101.351 28.2325 101.53 28.5436C101.71 28.8547 101.961 29.1419 102.284 29.4051C102.607 29.6564 103.104 30.0034 103.774 30.4461L104.348 30.841C105.054 31.3077 105.611 31.7145 106.018 32.0615C106.424 32.4085 106.753 32.8154 107.005 33.282C107.268 33.7367 107.4 34.2692 107.4 34.8795C107.4 35.6453 107.202 36.2915 106.807 36.8179C106.412 37.3325 105.874 37.7214 105.192 37.9846C104.522 38.2479 103.774 38.3795 102.948 38.3795C102.278 38.3795 101.722 38.3197 101.279 38.2C100.836 38.0803 100.429 37.9188 100.059 37.7154C99.7953 37.5479 99.5919 37.4641 99.4483 37.4641C99.3406 37.4641 99.2568 37.5299 99.197 37.6615C99.1372 37.7812 99.0893 37.9786 99.0534 38.2538H98.6406C98.6885 37.5 98.7124 35.8846 98.7124 33.4077H99.1252C99.209 34.7479 99.5081 35.8367 100.023 36.6744C100.537 37.5 101.327 37.9128 102.392 37.9128C103.038 37.9128 103.571 37.7393 103.989 37.3923C104.408 37.0453 104.618 36.5487 104.618 35.9026C104.618 35.2325 104.402 34.6581 103.971 34.1795C103.541 33.7009 102.859 33.1624 101.925 32.5641C101.207 32.0974 100.633 31.6906 100.202 31.3436C99.7714 30.9966 99.4184 30.5897 99.1432 30.1231C98.868 29.6444 98.7304 29.094 98.7304 28.4718C98.7304 27.7538 98.9098 27.1496 99.2688 26.659C99.6398 26.1564 100.13 25.7855 100.741 25.5461C101.351 25.3068 102.021 25.1872 102.751 25.1872Z" fill="#F9F9F9"/>
<path fill-rule="evenodd" clip-rule="evenodd" d="M11.8024 8.46186C11.7736 8.46796 11.6694 8.49804 11.5708 8.52869C11.4722 8.55934 11.3377 8.59941 11.272 8.61774C11.2063 8.63607 11.1364 8.65979 11.1168 8.67047C11.0971 8.68113 11.04 8.70212 10.9898 8.7171C10.8739 8.75165 10.4431 8.91954 10.2188 9.01748C10.1243 9.05875 9.97979 9.12058 9.89768 9.15491C9.72338 9.22775 8.87503 9.64973 8.65756 9.77175C8.57539 9.81784 8.46051 9.88168 8.40227 9.91362C8.00667 10.1305 7.063 10.7555 6.67975 11.0543C6.59254 11.1223 6.40353 11.2692 6.25974 11.3806C6.11594 11.492 5.92385 11.6496 5.83287 11.7309C5.74188 11.8121 5.5839 11.9526 5.48178 12.043C4.72935 12.7094 3.7949 13.7537 3.17405 14.6221C3.03763 14.8129 2.72963 15.2642 2.68939 15.3323C2.66994 15.3652 2.60226 15.4728 2.539 15.5715C2.47573 15.6702 2.36661 15.8518 2.29649 15.9752C2.22638 16.0985 2.1381 16.2533 2.10034 16.319C2.01263 16.4718 1.76599 16.9557 1.66212 17.1787C1.61808 17.2733 1.56216 17.3923 1.53786 17.4431C1.48433 17.5551 1.40831 17.7307 1.32213 17.9412C1.2868 18.0276 1.23284 18.1588 1.20223 18.2328C1.08671 18.5121 0.876229 19.1195 0.761895 19.5036C0.734959 19.5941 0.694129 19.7286 0.671152 19.8026C0.648175 19.8766 0.621791 19.9776 0.612528 20.0269C0.603251 20.0762 0.583022 20.157 0.56756 20.2063C0.517706 20.3654 0.418312 20.7901 0.418312 20.844C0.418312 20.8727 0.401176 20.9529 0.38023 21.0222C0.3593 21.0915 0.335546 21.205 0.327479 21.2743C0.319396 21.3437 0.292565 21.5013 0.267839 21.6245C0.243129 21.7478 0.216731 21.9135 0.209186 21.9927C0.201642 22.0719 0.191826 22.1465 0.187389 22.1583C0.165338 22.2172 0.130394 22.505 0.119428 22.7181C0.10153 23.0657 0.0807941 23.2292 0.037947 23.3606L0 23.4769V24.4001V25.3232L0.037947 25.4396C0.0810032 25.5716 0.102307 25.7398 0.118367 26.0746C0.124642 26.2055 0.146469 26.4039 0.168535 26.5306C0.190018 26.6539 0.215505 26.8221 0.225171 26.9044C0.234837 26.9866 0.262072 27.1463 0.285707 27.2594C0.309342 27.3724 0.328524 27.4834 0.328345 27.5061C0.328166 27.5287 0.347826 27.6314 0.372014 27.7341C0.396216 27.8369 0.425782 27.9715 0.437719 28.0332C0.468988 28.1946 0.5489 28.5328 0.582604 28.6462C0.598485 28.6996 0.635491 28.8274 0.664817 28.9302C0.805056 29.4216 0.895397 29.7104 0.964134 29.8871C0.991325 29.957 1.03547 30.0747 1.06223 30.1487C1.13029 30.337 1.22651 30.5833 1.30757 30.7767C1.34549 30.8671 1.38537 30.9647 1.39621 30.9935C1.47806 31.211 2.01528 32.2892 2.18977 32.5862C2.25242 32.6929 2.36116 32.8777 2.43141 32.9969C2.86287 33.7291 3.68836 34.8508 4.24077 35.4556C4.30125 35.5218 4.44579 35.68 4.56198 35.8072C4.83609 36.1073 4.98626 36.2576 5.29445 36.5405C5.43321 36.6678 5.60982 36.8305 5.68689 36.9019C5.76398 36.9734 5.89584 37.085 5.9799 37.15C6.06397 37.215 6.19326 37.3203 6.26721 37.3839C6.39203 37.4914 6.69404 37.7215 7.01419 37.9533C7.21693 38.1 7.85872 38.5247 8.04504 38.6353C8.23979 38.751 8.48508 38.8932 8.62021 38.9687C8.78041 39.0582 9.63244 39.4851 9.79298 39.5563C9.87515 39.5927 10.013 39.6525 10.0992 39.6892C10.1855 39.7258 10.2931 39.7722 10.3383 39.7921C10.5087 39.8674 10.7817 39.9718 11.018 40.0522C11.8361 40.3306 11.9946 40.3796 12.5195 40.5162C12.5893 40.5344 12.7204 40.569 12.8108 40.5931C12.9012 40.6172 12.9987 40.637 13.0274 40.637C13.0562 40.637 13.1495 40.6572 13.2348 40.6818C13.3201 40.7064 13.4115 40.7266 13.4381 40.7266C13.4646 40.7266 13.6014 40.7503 13.7421 40.7793C13.8827 40.8082 14.0602 40.8383 14.1364 40.846C14.2126 40.8537 14.3388 40.8741 14.4168 40.8914C14.4993 40.9096 14.6558 40.9278 14.7903 40.9349C14.9177 40.9416 15.0958 40.9575 15.1862 40.9701C15.2766 40.9827 15.408 41.0004 15.4783 41.0093C15.6406 41.03 17.7495 41.0316 17.9194 41.0112C17.9856 41.0032 18.1506 40.9832 18.2862 40.9667C18.4218 40.9502 18.6033 40.9335 18.6896 40.9296C18.7759 40.9256 18.9103 40.9084 18.9884 40.8912C19.0664 40.874 19.1904 40.8539 19.2639 40.8465C19.4637 40.8263 20.1053 40.7004 20.4973 40.6044C20.5671 40.5873 20.6848 40.5605 20.7587 40.5449C20.8327 40.5294 20.947 40.5001 21.0127 40.48C21.0784 40.4599 21.2163 40.4196 21.319 40.3904C21.4865 40.3428 22.1089 40.1411 22.3199 40.066C22.3651 40.0499 22.4592 40.0165 22.5291 39.9917C22.6659 39.9432 22.9202 39.842 23.1715 39.7362C23.7476 39.4935 24.5384 39.0961 25.1211 38.7565C25.4504 38.5645 26.1383 38.1144 26.3835 37.9304C26.4452 37.8842 26.5393 37.817 26.5927 37.7812C26.7277 37.6906 27.0573 37.4325 27.2799 37.2431C27.3826 37.1558 27.5339 37.0284 27.6161 36.9601C27.8021 36.8055 28.254 36.3893 28.4527 36.1896C29.2972 35.3407 30.1083 34.3308 30.7169 33.3707C31.0593 32.8306 31.4601 32.1251 31.6139 31.792C31.6453 31.724 31.7157 31.5753 31.7703 31.4617C31.8833 31.2269 31.916 31.1523 32.0707 30.7767C32.314 30.1862 32.487 29.6968 32.6573 29.1171C32.6912 29.002 32.739 28.8405 32.7635 28.7583C32.7881 28.6761 32.8081 28.5904 32.8079 28.5678C32.8077 28.5453 32.8271 28.4646 32.8509 28.3884C32.8748 28.3123 32.8984 28.2157 32.9034 28.1739C32.9085 28.132 32.9295 28.0395 32.9501 27.9683C32.9707 27.897 32.997 27.7765 33.0084 27.7005C33.0199 27.6244 33.0433 27.5084 33.0606 27.4426C33.0778 27.3768 33.0958 27.2759 33.1005 27.2183C33.1053 27.1608 33.1287 27.0113 33.1526 26.8861C33.1765 26.7609 33.196 26.6155 33.196 26.563C33.196 26.4716 33.2477 26.0764 33.2657 26.0297C33.2841 25.9823 33.3336 24.8093 33.3334 24.43C33.3331 24.1298 33.308 23.3395 33.2874 22.9872C33.2797 22.8556 33.2561 22.6336 33.2348 22.4938C33.2136 22.354 33.1961 22.1991 33.1961 22.1496C33.1961 22.1001 33.1794 21.9794 33.1591 21.8815C33.1389 21.7835 33.115 21.6373 33.1061 21.5565C33.0972 21.4758 33.0763 21.3576 33.0596 21.2939C33.0429 21.2302 33.0199 21.1162 33.0085 21.0405C32.9971 20.9649 32.9711 20.8438 32.9507 20.7714C32.9303 20.6991 32.9094 20.613 32.9043 20.5801C32.8991 20.5472 32.8757 20.4463 32.8523 20.3558C32.8288 20.2654 32.7958 20.1375 32.779 20.0717C32.6818 19.6927 32.4635 19.0032 32.3176 18.614C32.1391 18.1381 32.1435 18.1491 31.9963 17.8067C31.6136 16.9163 31.2228 16.1829 30.6819 15.3397C30.4464 14.9726 30.3526 14.8392 29.9892 14.3539C29.6869 13.9503 29.5561 13.7871 29.2128 13.3855C28.7679 12.865 27.9661 12.0713 27.5115 11.7016C27.4457 11.6481 27.3348 11.5561 27.265 11.4972C26.8961 11.1859 25.9857 10.538 25.7337 10.4074C25.6844 10.3819 25.6262 10.3468 25.6045 10.3294C25.5827 10.312 25.5561 10.3007 25.5453 10.3043C25.5341 10.308 25.5638 10.3377 25.6147 10.3736C25.6637 10.4081 25.7382 10.4648 25.7802 10.4996C25.8223 10.5344 25.913 10.6048 25.9819 10.6559C26.1603 10.7884 26.357 10.9447 26.4956 11.064C26.5613 11.1206 26.6561 11.1991 26.7062 11.2387C26.999 11.4693 27.9336 12.378 28.349 12.8358C29.1288 13.6952 29.946 14.8833 30.5289 16.0051C30.6873 16.3098 31.0189 17.0285 31.1118 17.2684C31.1421 17.3465 31.1864 17.4576 31.2102 17.5151C31.2689 17.6569 31.414 18.0607 31.4493 18.1804C31.465 18.2339 31.4939 18.3247 31.5135 18.3823C31.5697 18.5475 31.6988 18.9926 31.7434 19.1747C31.7554 19.224 31.7847 19.3312 31.8084 19.4128C31.8321 19.4944 31.8515 19.5792 31.8515 19.6013C31.8515 19.6233 31.871 19.7113 31.8949 19.7968C31.9187 19.8822 31.9423 19.9965 31.9473 20.0506C31.9523 20.1048 31.9724 20.2125 31.992 20.2899C32.0116 20.3673 32.0358 20.4978 32.0458 20.5801C32.0558 20.6623 32.0833 20.8396 32.1071 20.9741C32.1339 21.1262 32.1503 21.2708 32.1503 21.3566C32.1503 21.4326 32.1606 21.5614 32.1733 21.6429C32.2239 21.9685 32.2319 22.1629 32.2322 23.0694C32.2324 23.7513 32.2274 24.0108 32.2121 24.1235C32.1868 24.3088 32.1697 24.4829 32.1511 24.7439C32.1368 24.945 32.1284 25.0109 32.086 25.2523C32.0737 25.3222 32.0555 25.4466 32.0456 25.5289C32.0357 25.6111 32.0116 25.7417 31.992 25.8191C31.9724 25.8965 31.9523 26.0041 31.9473 26.0583C31.9423 26.1125 31.9187 26.2267 31.8949 26.3122C31.871 26.3977 31.8515 26.4856 31.8515 26.5077C31.8515 26.5297 31.8349 26.6032 31.8146 26.6711C31.7943 26.7389 31.7703 26.836 31.7613 26.8868C31.7523 26.9376 31.7257 27.043 31.7021 27.1212C31.6786 27.1993 31.6313 27.3574 31.597 27.4725C31.2879 28.5101 30.8239 29.6165 30.3275 30.5001C29.9916 31.098 29.8077 31.3904 29.3897 31.9916C29.1512 32.3345 28.7323 32.8577 28.3693 33.2662C28.077 33.595 27.5836 34.1019 27.3671 34.2956C26.9464 34.672 26.6211 34.9549 26.4986 35.0506C26.1728 35.3052 25.8632 35.538 25.7288 35.6294C25.183 36.0008 24.9217 36.1719 24.785 36.2477C24.6987 36.2955 24.587 36.3609 24.5369 36.393C24.2376 36.5843 23.1849 37.1054 22.7457 37.2797C22.6882 37.3025 22.5941 37.3402 22.5366 37.3635C22.18 37.5078 21.4902 37.7475 21.2667 37.8048C21.2174 37.8174 21.1233 37.844 21.0575 37.8638C20.6677 37.9813 20.5796 38.0055 20.5424 38.0055C20.5197 38.0055 20.4314 38.0256 20.3461 38.0503C20.2608 38.0749 20.1733 38.095 20.1516 38.0951C20.1298 38.0952 20.0357 38.1145 19.9424 38.1382C19.8491 38.1618 19.7122 38.1892 19.6383 38.1991C19.5643 38.2089 19.4198 38.2339 19.317 38.2546C19.2143 38.2753 19.053 38.2981 18.9585 38.3052C18.864 38.3123 18.7094 38.3327 18.6149 38.3504C18.5091 38.3702 18.331 38.3877 18.1518 38.396C17.9915 38.4033 17.7192 38.417 17.5467 38.4262C17.1429 38.4479 16.6122 38.4478 16.2245 38.426C16.0561 38.4166 15.7905 38.4029 15.6344 38.3957C15.3881 38.3842 15.0839 38.3498 15.0149 38.3256C15.0029 38.3214 14.9088 38.3117 14.8058 38.304C14.7028 38.2963 14.5546 38.2765 14.4766 38.2599C14.3985 38.2434 14.2641 38.2195 14.1778 38.2067C14.0915 38.194 13.9707 38.17 13.9093 38.1535C13.8479 38.1369 13.737 38.1142 13.6628 38.103C13.5886 38.0918 13.4683 38.0652 13.3955 38.044C13.3227 38.0228 13.2454 38.0056 13.2237 38.0058C13.202 38.006 13.1171 37.9864 13.0349 37.9623C12.7192 37.8699 12.6569 37.852 12.512 37.8121C12.4298 37.7895 12.3189 37.7568 12.2655 37.7396C12.2121 37.7223 12.1348 37.6983 12.0937 37.6862C11.9743 37.6511 11.6744 37.545 11.4961 37.4749C11.4057 37.4394 11.2612 37.383 11.1749 37.3496C10.4907 37.0847 9.61436 36.6485 8.98624 36.2603C8.37177 35.8804 8.26126 35.8096 8.12728 35.71C8.04917 35.6519 7.94158 35.5749 7.88817 35.5389C7.63385 35.3676 6.98544 34.8499 6.70308 34.5928C6.50474 34.4122 5.56073 33.467 5.37768 33.2657C5.29929 33.1795 5.1787 33.0384 5.10971 32.952C5.0407 32.8657 4.94636 32.7513 4.90005 32.6979C4.8144 32.599 4.48142 32.1588 4.29955 31.9039C4.10023 31.6245 3.65927 30.9213 3.42875 30.515C3.36593 30.4043 2.96746 29.613 2.89424 29.4535C2.79468 29.2367 2.60825 28.7953 2.54377 28.6237C2.51597 28.5497 2.47278 28.4353 2.4478 28.3696C2.29307 27.9619 2.10333 27.3533 1.98869 26.8969C1.97113 26.827 1.94034 26.7092 1.92026 26.6352C1.90018 26.5612 1.87341 26.4401 1.86077 26.3661C1.84813 26.2921 1.82423 26.1845 1.80766 26.1269C1.79109 26.0693 1.77064 25.9619 1.76221 25.8881C1.75379 25.8143 1.73032 25.6819 1.71007 25.5939C1.68982 25.5058 1.67325 25.4012 1.67325 25.3614C1.67325 25.3216 1.65592 25.1949 1.63473 25.08C1.61355 24.965 1.59011 24.7802 1.58265 24.6692C1.56502 24.4067 1.54532 24.1476 1.5218 23.8693C1.5107 23.738 1.50286 23.4065 1.50286 23.0694C1.50286 22.7324 1.5107 22.4009 1.5218 22.2695C1.54182 22.0326 1.55902 21.8115 1.58229 21.4921C1.59008 21.3852 1.61373 21.2037 1.63485 21.0888C1.65596 20.9738 1.67325 20.8477 1.67325 20.8083C1.67325 20.7691 1.69342 20.6417 1.71807 20.5253C1.74272 20.4089 1.76283 20.2862 1.76277 20.2525C1.76269 20.2189 1.78244 20.1106 1.80663 20.0119C1.83083 19.9133 1.86852 19.7518 1.89041 19.6531C1.97521 19.2707 1.99593 19.1901 2.1173 18.771C2.23368 18.3691 2.30581 18.1457 2.40444 17.8814C2.42746 17.8197 2.47675 17.6852 2.51396 17.5824C2.55118 17.4796 2.5969 17.3585 2.61556 17.3133C2.84684 16.7526 3.13036 16.1545 3.39526 15.6687C3.81493 14.8989 4.44167 13.97 4.957 13.3541C5.05119 13.2415 5.16939 13.0993 5.21967 13.038C5.37153 12.8529 5.8796 12.3142 6.17212 12.0281C6.42738 11.7785 6.82425 11.4202 6.99942 11.2812C7.04041 11.2487 7.12101 11.1808 7.17853 11.1303C7.31774 11.0082 7.90309 10.5684 8.16455 10.3895C8.40577 10.2244 9.1273 9.77076 9.2925 9.68032C9.62427 9.49868 10.0525 9.26963 10.0603 9.26963C10.0636 9.26963 10.1898 9.21155 10.3405 9.14054C10.6777 8.98179 11.0182 8.82922 11.1376 8.78341C11.1869 8.7645 11.2642 8.73166 11.3094 8.71045C11.3546 8.68923 11.4 8.67181 11.4103 8.67174C11.4207 8.67165 11.4946 8.64433 11.5747 8.61102C11.9223 8.46634 11.9899 8.42206 11.8024 8.46186Z" fill="#748B32"/>
<path d="M22.7605 26.224C22.803 26.19 23.1047 26.0843 23.2087 26.067C23.4421 26.028 23.6033 26.0578 23.7044 26.1588C23.7941 26.2484 23.8248 26.3197 23.8494 26.4954C23.8828 26.7342 23.8877 26.8461 23.8723 27.0165C23.8644 27.1028 23.8516 27.2912 23.8437 27.4351C23.8256 27.7678 23.8071 27.9535 23.779 28.0855C23.7507 28.2191 23.7241 28.4262 23.7241 28.5142C23.7241 28.5518 23.704 28.6523 23.6794 28.7377C23.6548 28.823 23.6346 28.9113 23.6346 28.9338C23.6345 28.9563 23.6143 29.0377 23.5897 29.1147C23.565 29.1917 23.5448 29.263 23.5448 29.2731C23.5448 29.3171 23.3827 29.7205 23.2769 29.9394C23.1466 30.2094 22.9473 30.518 22.7797 30.7094C22.436 31.102 22.017 31.4242 21.4832 31.7064C21.307 31.7995 21.1152 31.9049 20.9476 32.0007C20.8955 32.0306 20.8503 32.055 20.8473 32.055C20.8443 32.055 20.776 32.0944 20.6956 32.1426C20.6152 32.1908 20.5192 32.2456 20.4822 32.2643C20.4452 32.283 20.3646 32.33 20.3029 32.3687C20.2413 32.4075 20.0194 32.5455 19.8099 32.6754C19.4821 32.8787 19.0203 33.1768 18.7343 33.3697C18.5958 33.4631 18.3336 33.6518 18.1222 33.8103C17.8836 33.9893 17.8606 34.0031 17.8219 33.9908C17.7555 33.9697 17.7448 33.9246 17.7537 33.7037C17.777 33.1279 17.7911 32.9589 17.8291 32.8025C17.8501 32.7162 17.8673 32.6009 17.8675 32.5464C17.8677 32.4793 17.8822 32.4003 17.9126 32.3016C17.9372 32.2215 17.9572 32.1349 17.957 32.1092C17.9568 32.0835 17.98 31.9851 18.0085 31.8905C18.2486 31.0942 18.3016 30.9533 18.5646 30.4104C19.0315 29.4467 19.7217 28.5648 20.6214 27.7822C21.4184 27.0889 22.128 26.5628 22.6111 26.3071C22.6851 26.2679 22.7523 26.2306 22.7605 26.224Z" fill="#8E9D36"/>
<path d="M23.2347 11.084C23.3339 10.9376 23.3995 10.8871 23.5583 10.8349C23.6489 10.8051 23.6987 10.8086 23.8273 10.8534C24.0478 10.9304 24.3095 11.1919 24.4917 11.5174C24.6099 11.7285 24.6396 11.7866 24.6952 11.9155C24.8567 12.29 25.0966 13.1187 25.0974 13.305C25.0975 13.3415 25.1148 13.442 25.1357 13.5283C25.1878 13.7438 25.2068 14.1022 25.2068 14.8739C25.2068 15.6373 25.1881 15.9968 25.1356 16.2416C25.1144 16.3401 25.0971 16.4522 25.0971 16.4907C25.0971 16.5639 25.0824 16.6465 25.0096 16.982C24.9432 17.2875 24.8906 17.5006 24.8507 17.6249C24.8309 17.6866 24.8047 17.7807 24.7924 17.8342C24.7502 18.0185 24.5503 18.5727 24.361 19.0303C24.2421 19.3175 23.9372 19.9332 23.7908 20.1815L23.5883 20.5254C23.3231 20.9759 22.873 21.6026 22.4555 22.1026C22.0625 22.5733 21.8432 22.8085 21.0409 23.62C20.6465 24.0189 20.246 24.4295 20.151 24.5322C19.7723 24.9418 19.1133 25.7157 18.8339 26.0789C18.6045 26.3772 18.2452 26.8586 18.1477 26.9984C17.9552 27.2746 17.4754 28.0224 17.4182 28.1354C17.3995 28.1724 17.3445 28.2689 17.2961 28.3499C17.1363 28.6166 16.7048 29.5115 16.6018 29.7895C16.5809 29.846 16.5436 29.946 16.519 30.0118C16.4103 30.3017 16.2229 30.9323 16.2229 31.0082C16.2229 31.0299 16.2053 31.114 16.1837 31.195C16.1622 31.2761 16.139 31.403 16.1323 31.477C16.1256 31.551 16.1127 31.6687 16.1036 31.7386C16.0459 32.1826 16.0353 32.3656 16.0568 32.5518C16.0664 32.6349 16.0813 32.7669 16.0898 32.845C16.1316 33.2272 16.1856 33.4788 16.2947 33.7997C16.3667 34.0114 16.5023 34.3041 16.6144 34.4896C16.7408 34.6989 16.7538 34.7438 16.688 34.7438C16.6319 34.7438 16.1347 34.3937 15.8744 34.1709C15.4568 33.8135 14.9566 33.2518 14.6538 32.8002C14.3699 32.3768 14.1204 31.8834 13.9543 31.4172C13.8736 31.1906 13.7904 30.9208 13.7791 30.8491C13.7739 30.8162 13.7502 30.7128 13.7264 30.6194C13.7027 30.526 13.6832 30.4216 13.6832 30.3874C13.6832 30.3531 13.6651 30.2445 13.643 30.146C13.603 29.9676 13.6028 29.9644 13.5974 29.2493C13.5917 28.504 13.5976 28.3969 13.6621 28.0859C13.6737 28.0298 13.6834 27.9491 13.6837 27.9065C13.684 27.8638 13.6935 27.7852 13.7047 27.7318C13.7597 27.4698 13.8066 27.2652 13.835 27.1636C13.8522 27.102 13.8745 27.0145 13.8844 26.9693C13.9141 26.8342 14.1554 26.0872 14.2466 25.8479C14.464 25.2774 14.8807 24.408 15.1816 23.8968C15.4624 23.4198 15.6095 23.1763 15.735 22.9808C15.9149 22.7003 16.4756 21.8762 16.6732 21.6019C16.9658 21.1955 17.0224 21.1186 17.448 20.5482C17.6822 20.2344 17.8949 19.9478 17.9206 19.9114C17.9464 19.8749 18.0428 19.7476 18.1348 19.6283C18.2269 19.5091 18.394 19.2912 18.5063 19.1441L18.9912 18.5087C19.1457 18.3063 19.307 18.0908 19.3498 18.0299C19.3925 17.969 19.5384 17.7697 19.674 17.587C19.9966 17.1523 20.2856 16.7498 20.4787 16.4662C20.8978 15.8507 21.2107 15.3641 21.4689 14.9262C21.818 14.3343 21.8863 14.2113 22.1004 13.7899C22.4289 13.1433 22.7678 12.3398 22.9265 11.8314C23.0708 11.3694 23.1168 11.2578 23.2347 11.084Z" fill="#748B32"/>
<path fill-rule="evenodd" clip-rule="evenodd" d="M15.7014 0.0188711C15.7014 0.0559646 15.7539 0.11523 16.0746 0.440834C16.4269 0.798372 16.5026 0.883578 16.7189 1.16596C17.0435 1.58992 17.3291 2.08172 17.5166 2.5397C17.6072 2.76117 17.744 3.18363 17.7708 3.32505C17.7832 3.39012 17.8066 3.48642 17.8228 3.53907C17.8391 3.59173 17.8592 3.7067 17.8675 3.79457C17.8758 3.88244 17.8973 4.03506 17.9151 4.13374C17.9431 4.28852 17.9484 4.38206 17.9535 4.81535C17.9592 5.30041 17.9581 5.32556 17.9207 5.5512C17.8994 5.67969 17.876 5.86415 17.8686 5.96114C17.8612 6.05811 17.8413 6.19224 17.8242 6.25922C17.8071 6.32618 17.7861 6.4316 17.7775 6.49347C17.7617 6.60696 17.6968 6.87617 17.5858 7.2884C17.3893 8.0185 17.0105 9.01651 16.5786 9.94221C16.372 10.385 15.8901 11.3277 15.6042 11.8485C15.2078 12.5705 14.5243 13.7828 14.1039 14.5097C14.0278 14.6413 13.8411 14.9676 13.6889 15.2349C13.5368 15.5021 13.3735 15.7881 13.326 15.8703C13.2785 15.9525 13.1607 16.1577 13.0641 16.3263C12.9675 16.4949 12.8247 16.7438 12.7466 16.8795C12.6685 17.0152 12.5375 17.2439 12.4554 17.3878C12.3134 17.637 12.1756 17.8739 11.9513 18.255C11.8957 18.3495 11.788 18.5346 11.7121 18.6661C11.5298 18.9821 11.3008 19.3733 11.0776 19.7501C10.469 20.7774 10.2975 21.0871 9.893 21.8898C9.60384 22.4636 9.36351 23.0031 9.12882 23.6052C8.94874 24.0671 8.67542 24.9117 8.59831 25.2446C8.57927 25.3268 8.55246 25.4412 8.53878 25.4987C8.43946 25.9163 8.41012 26.0521 8.39584 26.1604C8.38687 26.2283 8.36312 26.3629 8.34304 26.4594C8.32296 26.556 8.30635 26.6855 8.30612 26.7472C8.3059 26.8088 8.29891 26.9064 8.29059 26.9639C8.22154 27.4419 8.21666 27.5204 8.2168 28.1525C8.21693 28.7641 8.23183 29.0255 8.27807 29.2273C8.28676 29.2652 8.29939 29.377 8.30612 29.4757C8.31285 29.5744 8.33215 29.7089 8.349 29.7747C8.36585 29.8405 8.38734 29.9448 8.39672 30.0065C8.45413 30.3835 8.68825 31.126 8.92233 31.6735C9.13791 32.1777 9.34452 32.5595 9.65421 33.0258C10.0905 33.6826 10.5524 34.2106 11.1463 34.731C11.4748 35.0189 11.646 35.1509 12.0062 35.3944C12.7177 35.8755 13.5482 36.2665 14.3892 36.5167C14.6168 36.5844 15.0474 36.6896 15.0969 36.6896C15.1233 36.6896 15.2113 36.7068 15.2924 36.7279C15.3828 36.7513 15.5152 36.7714 15.6342 36.7797C15.741 36.7871 15.9192 36.808 16.0301 36.826C16.2021 36.854 16.3079 36.8598 16.7488 36.8651C17.261 36.8713 17.2688 36.8709 17.5976 36.8253C17.7801 36.8 17.9702 36.7793 18.02 36.7793C18.0698 36.7793 18.1872 36.7621 18.2808 36.7411C18.3744 36.7201 18.5096 36.6934 18.5814 36.6818C18.7897 36.6481 19.3957 36.4787 19.6605 36.3802C19.7992 36.3286 20.1172 36.1731 20.1751 36.1287C20.2637 36.0606 20.109 36.0761 19.5625 36.1901C19.4634 36.2107 19.2992 36.2339 19.1976 36.2416C19.0959 36.2493 19.0022 36.259 18.9893 36.2631C18.9763 36.2671 18.8515 36.284 18.7118 36.3005C18.3222 36.3467 18.0946 36.3406 17.5877 36.2705C17.4707 36.2543 17.3329 36.2409 17.2814 36.2407C17.23 36.2406 17.1442 36.2307 17.0908 36.2188C17.0374 36.207 16.9124 36.1805 16.813 36.16C16.6105 36.1183 16.2635 36.0204 15.9663 35.921C15.2601 35.6849 14.4273 35.2156 13.819 34.711C13.6488 34.5698 13.175 34.1018 13.0144 33.9162C12.7102 33.5647 12.4478 33.1657 12.2131 32.6979C12.1231 32.5183 11.9381 32.0965 11.8858 31.9513C11.7894 31.6838 11.6623 31.2181 11.6162 30.9633C11.5961 30.8523 11.5657 30.6976 11.5487 30.6195C11.5317 30.5413 11.5113 30.3698 11.5035 30.2382C11.4956 30.1066 11.4789 29.9048 11.4664 29.7897C11.4357 29.5064 11.4378 29.2323 11.4735 28.8926C11.4899 28.7364 11.5035 28.5547 11.5036 28.4889C11.504 28.3556 11.5318 28.1425 11.5769 27.9283C11.5934 27.8502 11.6136 27.7257 11.6219 27.6517C11.6301 27.5777 11.6535 27.4465 11.6737 27.3601C11.694 27.2738 11.7351 27.0989 11.765 26.9714C11.8785 26.4878 12.0428 25.9574 12.2528 25.3961C12.5868 24.5037 13.0218 23.5712 13.4078 22.9197C13.459 22.8333 13.5905 22.608 13.7 22.4188C13.8095 22.2297 13.9607 21.9707 14.0358 21.8432C14.1111 21.7158 14.2426 21.4914 14.3282 21.3446C14.4138 21.1978 14.5482 20.969 14.6268 20.8362C14.7974 20.5481 15.1299 19.9848 15.3252 19.6529C15.4027 19.5213 15.5516 19.269 15.6561 19.0922C15.8909 18.6952 16.0973 18.3441 16.3004 17.996C16.3859 17.8494 16.5121 17.6341 16.5808 17.5175C16.7372 17.2521 16.9031 16.9677 17.0316 16.7449C17.3443 16.2024 17.4319 16.0507 17.5063 15.9226C17.8364 15.3538 18.075 14.9322 18.3948 14.3528C18.7253 13.7539 18.8559 13.4938 19.1376 12.8726C19.3099 12.4925 19.4173 12.2363 19.5855 11.8036C19.7101 11.4833 19.942 10.8254 19.9879 10.6621C20.0033 10.6074 20.0478 10.455 20.0867 10.3235C20.1257 10.1919 20.1694 10.0338 20.1838 9.97211C20.1981 9.91043 20.2274 9.78933 20.2486 9.70299C20.3233 9.40031 20.3514 9.27612 20.3654 9.18718C20.3813 9.08544 20.4103 8.92572 20.4427 8.76108C20.4548 8.6994 20.4723 8.56484 20.4816 8.46206C20.4909 8.35927 20.511 8.19107 20.5263 8.08828C20.5742 7.76649 20.5867 7.5676 20.5867 7.13141C20.5867 6.70183 20.5727 6.46879 20.5325 6.22688C20.5201 6.15287 20.4971 5.9914 20.4813 5.86805C20.3976 5.21477 20.1569 4.43474 19.8401 3.78986C19.1467 2.37829 17.9232 1.16382 16.2428 0.218976C16.1039 0.140916 15.9491 0.0596576 15.8986 0.0384122C15.7998 -0.00322642 15.7014 -0.0129746 15.7014 0.0188711Z" fill="#8CBC43"/>
</svg>
