<svg width="15" height="12" viewBox="0 0 15 12" fill="none" xmlns="http://www.w3.org/2000/svg">
<rect width="15" height="12" rx="2" fill="#F9F9F9"/>
<path d="M4.46907 7.75004C4.23926 7.35199 4.0901 6.91258 4.0301 6.45688C3.97011 6.00119 4.00046 5.53814 4.11942 5.09417C4.23838 4.65021 4.44362 4.23402 4.72342 3.86937C5.00323 3.50473 5.35211 3.19876 5.75016 2.96895C6.14821 2.73914 6.58763 2.58998 7.04332 2.52998C7.49901 2.46999 7.96206 2.50034 8.40603 2.6193C8.84999 2.73826 9.26618 2.9435 9.63083 3.2233C9.99547 3.50311 10.3014 3.85199 10.5312 4.25004L7.50016 6.00004L4.46907 7.75004Z" fill="#FD3B3B"/>
<path d="M10.5309 4.24996C10.7607 4.64801 10.9099 5.08743 10.9699 5.54312C11.0299 5.99881 10.9995 6.46186 10.8806 6.90583C10.7616 7.34979 10.5564 7.76598 10.2766 8.13063C9.99677 8.49527 9.64789 8.80124 9.24984 9.03105C8.85179 9.26086 8.41237 9.41002 7.95668 9.47002C7.50099 9.53001 7.03794 9.49966 6.59397 9.3807C6.15001 9.26174 5.73382 9.0565 5.36917 8.7767C5.00453 8.49689 4.69856 8.14801 4.46875 7.74996L7.49984 5.99996L10.5309 4.24996Z" fill="#2A65D9"/>
<rect x="1.08594" y="3.20703" width="3" height="1" transform="rotate(-45 1.08594 3.20703)" fill="#1F1F1F"/>
<rect width="3" height="1" transform="matrix(-0.707107 -0.707107 -0.707107 0.707107 3.91406 10.1213)" fill="#1F1F1F"/>
<rect x="10.9995" y="10.1213" width="3" height="1" transform="rotate(-45 10.9995 10.1213)" fill="#1F1F1F"/>
<rect width="3" height="1" transform="matrix(-0.707107 -0.707107 -0.707107 0.707107 13.8281 3.12134)" fill="#1F1F1F"/>
</svg>
