<svg width="862" height="862" viewBox="0 0 862 862" fill="none" xmlns="http://www.w3.org/2000/svg">
<g opacity="0.15">
<path d="M135.536 120.427C180.81 77.3586 234.964 44.7232 294.194 24.8129C353.424 4.90264 416.295 -1.79988 478.392 5.17605C540.488 12.152 600.305 32.6372 653.641 65.1933C706.977 97.7493 752.54 141.587 787.129 193.627" stroke="#1F1F1F" stroke-width="5" stroke-linecap="round"/>
<path d="M548.083 823.309C451.228 852.284 347.082 844.445 255.656 801.299C164.229 758.152 91.9724 682.741 52.7687 589.556" stroke="#8CBC43" stroke-width="5" stroke-linecap="round"/>
<path d="M132.482 658.975C92.2764 606.491 66.6387 544.323 58.1608 478.754C49.6829 413.186 58.6654 346.541 84.2003 285.557C109.735 224.573 150.917 171.411 203.584 131.445C256.251 91.4783 318.535 66.1242 384.142 57.9454C449.748 49.7666 516.351 59.0528 577.218 84.8654C638.085 110.678 691.059 152.102 730.785 204.951C770.511 257.799 795.58 320.198 803.46 385.841C811.34 451.484 801.75 518.044 775.66 578.793" stroke="#8CBC43" stroke-width="5" stroke-linecap="round"/>
<path d="M358.972 757.898C296.366 744.197 239.003 712.828 193.687 667.511" stroke="#8CBC43" stroke-width="5" stroke-linecap="round"/>
<path d="M360.088 103.057C422.74 89.57 487.946 94.3343 547.972 116.785" stroke="#1F1F1F" stroke-width="5" stroke-linecap="round"/>
<path d="M627.005 750.682C564.005 789.34 490.997 808.547 417.129 805.895C343.261 803.244 271.817 778.853 211.75 735.778" stroke="#1F1F1F" stroke-width="5" stroke-linecap="round"/>
</g>
</svg>
