<svg width="897" height="898" viewBox="0 0 897 898" fill="none" xmlns="http://www.w3.org/2000/svg">
<g opacity="0.15">
<path d="M693.612 139.526C738.725 175.313 775.458 220.542 801.23 272.037C827.001 323.532 841.188 380.045 842.792 437.607C844.397 495.169 833.381 552.384 810.518 605.235C787.655 658.086 753.499 705.291 710.449 743.535" stroke="#1F1F1F" stroke-width="5" stroke-linecap="round"/>
<path d="M105.155 606.214C66.2827 521.55 60.0682 425.507 87.706 336.54C115.344 247.572 174.884 171.956 254.887 124.221" stroke="#8CBC43" stroke-width="5" stroke-linecap="round"/>
<path d="M201.784 205.884C244.514 162.46 297.952 131.086 356.694 114.935C415.436 98.7835 477.402 98.4262 536.326 113.899C595.251 129.373 649.047 160.128 692.275 203.056C735.504 245.984 766.633 299.564 782.517 358.379C798.4 417.195 798.475 479.161 782.733 538.015C766.992 596.868 735.992 650.523 692.867 693.555C649.742 736.588 596.021 767.472 537.134 783.088C478.246 798.703 416.28 798.495 357.499 782.485" stroke="#8CBC43" stroke-width="5" stroke-linecap="round"/>
<path d="M140.608 425.25C145.074 366.369 166.334 310.004 201.867 262.84" stroke="#8CBC43" stroke-width="5" stroke-linecap="round"/>
<path d="M738.246 342.227C758.593 397.662 762.614 457.769 749.833 515.42" stroke="#1F1F1F" stroke-width="5" stroke-linecap="round"/>
<path d="M181.573 668.901C138.212 616.375 111.315 552.221 104.254 484.477C97.1923 416.733 110.279 348.411 141.875 288.072" stroke="#1F1F1F" stroke-width="5" stroke-linecap="round"/>
</g>
</svg>
