<svg width="554" height="681" viewBox="0 0 554 681" fill="none" xmlns="http://www.w3.org/2000/svg">
<g opacity="0.15">
<path d="M378.281 435.302C378.988 434.738 384.001 432.984 385.73 432.695C389.609 432.048 392.289 432.544 393.969 434.22C395.459 435.708 395.969 436.89 396.378 439.806C396.934 443.771 397.016 445.628 396.759 448.457C396.628 449.89 396.415 453.017 396.284 455.406C395.982 460.928 395.676 464.011 395.209 466.201C394.738 468.419 394.296 471.857 394.296 473.317C394.296 473.941 393.962 475.61 393.553 477.027C393.144 478.444 392.809 479.909 392.808 480.282C392.807 480.656 392.471 482.008 392.062 483.286C391.652 484.564 391.317 485.747 391.317 485.914C391.317 486.646 388.622 493.341 386.865 496.975C384.698 501.456 381.386 506.579 378.601 509.756C372.888 516.274 365.925 521.621 357.052 526.306C354.124 527.852 350.937 529.601 348.151 531.192C347.285 531.687 346.534 532.092 346.484 532.092C346.434 532.092 345.299 532.747 343.963 533.547C342.626 534.348 341.03 535.256 340.416 535.567C339.801 535.877 338.461 536.657 337.436 537.3C336.412 537.943 332.725 540.234 329.242 542.391C323.794 545.766 316.119 550.714 311.365 553.915C309.064 555.466 304.707 558.599 301.193 561.23C297.227 564.201 296.845 564.43 296.202 564.225C295.098 563.875 294.92 563.127 295.068 559.46C295.455 549.903 295.69 547.097 296.321 544.501C296.67 543.068 296.957 541.155 296.959 540.25C296.962 539.136 297.204 537.825 297.709 536.187C298.118 534.857 298.451 533.419 298.447 532.992C298.443 532.565 298.829 530.932 299.303 529.362C303.294 516.144 304.174 513.805 308.546 504.793C316.306 488.796 327.776 474.158 342.729 461.166C355.975 449.658 367.77 440.925 375.798 436.681C377.027 436.031 378.145 435.411 378.281 435.302Z" fill="#78852C"/>
<path d="M386.152 183.987C387.802 181.557 388.892 180.719 391.532 179.852C393.036 179.358 393.865 179.415 396.001 180.16C399.667 181.438 404.016 185.779 407.044 191.181C409.008 194.686 409.502 195.65 410.426 197.789C413.111 204.005 417.098 217.763 417.111 220.855C417.113 221.46 417.399 223.128 417.747 224.561C418.614 228.138 418.929 234.087 418.929 246.897C418.929 259.57 418.618 265.537 417.745 269.6C417.393 271.235 417.106 273.096 417.106 273.735C417.106 274.949 416.861 276.321 415.651 281.89C414.548 286.961 413.673 290.499 413.01 292.562C412.682 293.586 412.246 295.149 412.042 296.036C411.341 299.096 408.019 308.294 404.871 315.89C402.895 320.659 397.828 330.878 395.395 335C394.549 336.433 393.034 339.002 392.029 340.708C387.622 348.186 380.141 358.59 373.202 366.889C366.67 374.702 363.026 378.607 349.692 392.076C343.137 398.699 336.481 405.514 334.901 407.22C328.608 414.018 317.655 426.864 313.011 432.894C309.198 437.844 303.227 445.836 301.607 448.157C298.407 452.741 290.434 465.153 289.483 467.03C289.172 467.645 288.258 469.246 287.453 470.59C284.798 475.017 277.626 489.872 275.915 494.487C275.567 495.424 274.947 497.085 274.538 498.177C272.731 502.99 269.617 513.457 269.617 514.717C269.617 515.076 269.324 516.472 268.966 517.818C268.607 519.163 268.223 521.27 268.112 522.498C268 523.727 267.785 525.681 267.634 526.841C266.674 534.211 266.499 537.249 266.857 540.339C267.016 541.719 267.263 543.91 267.405 545.206C268.099 551.551 268.996 555.727 270.81 561.053C272.006 564.567 274.26 569.426 276.123 572.506C278.224 575.979 278.44 576.725 277.346 576.725C276.414 576.725 268.15 570.914 263.824 567.216C256.883 561.283 248.57 551.958 243.538 544.462C238.82 537.434 234.673 529.245 231.913 521.505C230.571 517.744 229.188 513.266 229.001 512.075C228.915 511.529 228.521 509.814 228.126 508.263C227.73 506.713 227.407 504.979 227.407 504.411C227.407 503.842 227.106 502.04 226.739 500.405C226.073 497.443 226.071 497.39 225.98 485.52C225.886 473.149 225.985 471.371 227.056 466.208C227.249 465.277 227.411 463.937 227.416 463.23C227.421 462.522 227.578 461.217 227.764 460.33C228.678 455.981 229.457 452.585 229.929 450.899C230.216 449.875 230.586 448.423 230.751 447.673C231.245 445.431 235.255 433.031 236.77 429.059C240.384 419.588 247.309 405.157 252.31 396.672C256.978 388.754 259.423 384.712 261.507 381.466C264.497 376.811 273.816 363.131 277.1 358.577C281.963 351.832 282.904 350.555 289.978 341.087C293.87 335.878 297.405 331.121 297.833 330.516C298.261 329.911 299.863 327.797 301.393 325.818C302.923 323.838 305.701 320.221 307.566 317.78C309.426 315.347 313.033 310.626 315.598 307.269L315.626 307.232C318.193 303.873 320.875 300.297 321.586 299.285C322.296 298.274 324.721 294.965 326.974 291.933C332.335 284.718 337.139 278.036 340.348 273.328C347.313 263.111 352.514 255.033 356.805 247.766C362.607 237.94 363.743 235.899 367.3 228.904C372.759 218.17 378.392 204.833 381.031 196.393C383.429 188.724 384.193 186.873 386.152 183.987Z" fill="#657A29"/>
<path fill-rule="evenodd" clip-rule="evenodd" d="M260.956 0.313248C260.956 0.928976 261.828 1.91275 267.159 7.31756C273.014 13.2525 274.272 14.6668 277.866 19.3542C283.262 26.3917 288.008 34.5553 291.123 42.1574C292.63 45.8337 294.903 52.8462 295.349 55.1937C295.555 56.2738 295.944 57.8723 296.214 58.7464C296.484 59.6204 296.818 61.5289 296.956 62.9875C297.095 64.446 297.451 66.9794 297.747 68.6174C298.213 71.1868 298.3 72.7394 298.385 79.9318C298.48 87.9834 298.462 88.4008 297.84 92.1463C297.486 94.2792 297.097 97.3412 296.975 98.9511C296.852 100.561 296.52 102.787 296.236 103.899C295.952 105.011 295.603 106.761 295.46 107.787C295.197 109.671 294.119 114.14 292.275 120.983C289.009 133.102 282.713 149.668 275.534 165.034C272.1 172.384 264.092 188.032 259.34 196.677C252.751 208.662 241.393 228.786 234.405 240.852C233.14 243.036 230.037 248.453 227.509 252.889C224.98 257.325 222.266 262.072 221.477 263.437C220.687 264.802 218.729 268.208 217.124 271.006C215.519 273.804 213.144 277.936 211.847 280.189C210.549 282.441 208.371 286.238 207.008 288.627C204.647 292.763 202.357 296.696 198.629 303.021C197.704 304.591 195.915 307.662 194.653 309.846C191.623 315.091 187.817 321.585 184.108 327.839C173.993 344.892 171.143 350.033 164.42 363.357C159.614 372.882 155.62 381.836 151.719 391.83C148.726 399.499 144.184 413.519 142.902 419.044C142.586 420.409 142.14 422.307 141.913 423.263C140.262 430.194 139.775 432.448 139.537 434.246C139.388 435.373 138.993 437.607 138.66 439.21C138.326 440.813 138.05 442.962 138.046 443.986C138.042 445.009 137.926 446.629 137.788 447.584C136.64 455.518 136.559 456.821 136.562 467.314C136.564 477.467 136.811 481.805 137.58 485.155C137.724 485.784 137.934 487.64 138.046 489.278C138.158 490.916 138.479 493.15 138.759 494.242C139.039 495.334 139.396 497.065 139.552 498.088C140.506 504.346 144.397 516.672 148.287 525.76C151.87 534.129 155.304 540.467 160.451 548.207C167.702 559.11 175.379 567.874 185.249 576.512C190.709 581.291 193.554 583.483 199.541 587.525C211.367 595.51 225.169 602.001 239.146 606.154C242.929 607.278 250.086 609.024 250.909 609.024C251.347 609.024 252.809 609.31 254.158 609.659C255.661 610.049 257.862 610.382 259.839 610.519C261.614 610.643 264.575 610.989 266.419 611.289C269.277 611.753 271.035 611.849 278.363 611.937C286.877 612.039 287.006 612.034 292.47 611.277C295.503 610.856 298.662 610.513 299.49 610.513C300.319 610.513 302.269 610.227 303.825 609.879C305.38 609.53 307.628 609.087 308.821 608.895C312.282 608.335 322.355 605.523 326.755 603.888C329.06 603.031 334.347 600.451 335.308 599.714C336.781 598.584 334.209 598.841 325.127 600.732C323.48 601.075 320.751 601.46 319.062 601.588C317.373 601.716 315.815 601.876 315.6 601.944C315.385 602.011 313.31 602.291 310.988 602.566C304.514 603.332 300.731 603.231 292.306 602.067C290.361 601.798 288.07 601.576 287.216 601.573C286.361 601.57 284.936 601.407 284.048 601.21C283.16 601.013 281.082 600.573 279.43 600.234C276.065 599.542 270.298 597.915 265.358 596.266C253.622 592.347 239.78 584.557 229.671 576.181C226.841 573.837 218.967 566.068 216.297 562.987C211.242 557.153 206.881 550.53 202.98 542.765C201.484 539.784 198.41 532.782 197.54 530.372C195.938 525.93 193.826 518.201 193.059 513.972C192.725 512.129 192.221 509.56 191.938 508.264C191.655 506.967 191.317 504.119 191.186 501.935C191.055 499.751 190.778 496.401 190.57 494.49C190.059 489.787 190.095 485.237 190.688 479.599C190.961 477.006 191.186 473.99 191.189 472.898C191.194 470.684 191.657 467.148 192.407 463.592C192.681 462.295 193.017 460.229 193.154 459C193.291 457.772 193.679 455.594 194.016 454.161C194.353 452.728 195.036 449.824 195.533 447.708C197.42 439.681 200.15 430.876 203.641 421.56C209.192 406.746 216.42 391.266 222.836 380.452C223.687 379.019 225.872 375.278 227.692 372.138C229.513 368.999 232.024 364.699 233.274 362.583C234.524 360.468 236.711 356.743 238.133 354.306C239.556 351.869 241.789 348.072 243.096 345.868C245.931 341.085 251.457 331.735 254.704 326.226C255.991 324.042 258.466 319.854 260.203 316.919C264.105 310.329 267.535 304.501 270.911 298.722C272.333 296.289 274.429 292.715 275.571 290.78C278.17 286.375 280.928 281.654 283.063 277.955C288.261 268.95 289.717 266.432 290.952 264.305C296.438 254.863 300.404 247.865 305.72 238.247C311.213 228.306 313.382 223.989 318.064 213.677C320.929 207.367 322.713 203.115 325.51 195.932C327.58 190.615 331.434 179.695 332.198 176.984C332.453 176.076 333.192 173.547 333.84 171.363C334.488 169.179 335.213 166.554 335.452 165.531C335.691 164.507 336.177 162.497 336.531 161.063C337.771 156.039 338.239 153.978 338.47 152.501C338.736 150.812 339.217 148.161 339.755 145.428C339.957 144.405 340.248 142.171 340.402 140.465C340.557 138.758 340.891 135.967 341.145 134.26C341.941 128.919 342.149 125.617 342.149 118.377C342.149 111.246 341.917 107.378 341.248 103.362C341.043 102.134 340.66 99.4534 340.397 97.406C339.006 86.5618 335.006 73.6139 329.741 62.9093C318.216 39.4781 297.882 19.3187 269.953 3.63485C267.646 2.33912 265.072 0.990278 264.234 0.637618C262.591 -0.0535565 260.956 -0.21537 260.956 0.313248Z" fill="#90BD21"/>
</g>
</svg>
