<svg width="30" height="30" viewBox="0 0 30 30" fill="none" xmlns="http://www.w3.org/2000/svg">
<g clip-path="url(#clip0)">
<path d="M5.29468 16.0069C4.47723 17.5234 5.40536 18.2483 7.52299 19.4867C9.32325 20.5362 11.8103 20.9201 13.4078 21.0736C12.7531 21.6676 15.7535 18.9443 7.11227 26.7884C5.28001 28.4458 8.22976 31.105 10.0607 29.4828L15.0174 24.9711C16.915 26.694 18.7339 28.3451 19.9741 29.4891C21.8064 31.1176 24.7548 28.481 22.9425 26.7947C22.8065 26.6726 16.2256 20.7149 16.627 21.0799C18.2445 20.9264 20.6942 20.5199 22.4731 19.493L22.4718 19.4917C24.5894 18.2471 25.5176 17.5234 24.7121 16.0069C24.2254 15.1461 22.9132 14.4263 21.1663 15.6709C21.1663 15.6709 18.8073 17.3762 15.0027 17.3762C11.1969 17.3762 8.83918 15.6709 8.83918 15.6709C7.0936 14.42 5.77608 15.1461 5.29468 16.0069Z" fill="#F9F9F9"/>
<path d="M14.4122 15.0001C18.9453 15.0001 22.6469 11.6424 22.6469 7.50878C22.6469 3.35789 18.9453 0.00012207 14.4122 0.00012207C9.87782 0.00012207 6.17627 3.35789 6.17627 7.50878C6.17627 11.6424 9.87782 15.0001 14.4122 15.0001ZM14.4122 3.80387C16.6397 3.80387 18.4566 5.46052 18.4566 7.50878C18.4566 9.53975 16.6397 11.1964 14.4122 11.1964C12.1848 11.1964 10.3679 9.53975 10.3679 7.50878C10.3666 5.45928 12.1835 3.80387 14.4122 3.80387Z" fill="#F9F9F9"/>
</g>
<defs>
<clipPath id="clip0">
<path d="M0 0H30V30H0V0Z" fill="white"/>
</clipPath>
</defs>
</svg>
