<svg width="96" height="119" viewBox="0 0 96 119" fill="none" xmlns="http://www.w3.org/2000/svg">
<path fill-rule="evenodd" clip-rule="evenodd" d="M33.9908 24.5448C33.908 24.5625 33.6079 24.6497 33.3239 24.7386C33.0399 24.8275 32.6527 24.9438 32.4634 24.9969C32.2741 25.0501 32.0729 25.1189 32.0163 25.1499C31.9596 25.1808 31.7951 25.2417 31.6505 25.2851C31.3169 25.3854 30.076 25.8723 29.43 26.1564C29.1579 26.2761 28.7418 26.4555 28.5053 26.5551C28.0033 26.7663 25.5601 27.9903 24.9338 28.3443C24.6971 28.478 24.3663 28.6631 24.1985 28.7558C23.0592 29.385 20.3414 31.1977 19.2377 32.0646C18.9865 32.2618 18.4422 32.6877 18.028 33.0109C17.6139 33.3341 17.0607 33.7913 16.7986 34.0269C16.5366 34.2626 16.0816 34.67 15.7875 34.9323C13.6205 36.8652 10.9293 39.8944 9.14125 42.4133C8.74838 42.9667 7.86134 44.2758 7.74543 44.4732C7.68941 44.5687 7.4945 44.8809 7.31233 45.1671C7.13011 45.4533 6.81585 45.9803 6.61388 46.338C6.41196 46.6958 6.15772 47.1447 6.04899 47.3355C5.79638 47.7787 5.08606 49.1822 4.7869 49.8291C4.66006 50.1034 4.49901 50.4485 4.42905 50.596C4.27488 50.9209 4.05592 51.4302 3.80775 52.0408C3.70599 52.2913 3.55058 52.6718 3.46242 52.8865C3.12974 53.6966 2.52354 55.4586 2.19426 56.5727C2.11668 56.8351 1.99909 57.2254 1.93292 57.4401C1.86674 57.6547 1.79076 57.9475 1.76408 58.0906C1.73736 58.2337 1.6791 58.4679 1.63457 58.611C1.49099 59.0726 1.20474 60.3043 1.20474 60.4606C1.20474 60.544 1.15539 60.7767 1.09506 60.9777C1.03478 61.1787 0.966372 61.5077 0.943138 61.7089C0.919861 61.9101 0.842585 62.3672 0.771377 62.7247C0.700211 63.0822 0.624184 63.5628 0.602456 63.7926C0.580727 64.0225 0.552458 64.2386 0.539679 64.273C0.476173 64.4437 0.375533 65.2786 0.343952 65.8967C0.292407 66.9049 0.232687 67.3794 0.109287 67.7603L0 68.0978V70.7755V73.4532L0.109287 73.7907C0.233289 74.1735 0.294645 74.6616 0.340898 75.6326C0.358969 76.0123 0.421831 76.588 0.485381 76.9553C0.547252 77.3131 0.620655 77.801 0.648493 78.0395C0.676331 78.278 0.754768 78.7414 0.822836 79.0693C0.890903 79.3971 0.946149 79.7191 0.945633 79.7848C0.945117 79.8505 1.00174 80.1483 1.0714 80.4464C1.1411 80.7446 1.22625 81.1349 1.26063 81.3137C1.35068 81.7821 1.58083 82.7629 1.6779 83.0918C1.72364 83.2468 1.83021 83.6176 1.91467 83.9158C2.31856 85.3412 2.57874 86.1789 2.77671 86.6913C2.85501 86.894 2.98216 87.2356 3.05922 87.4502C3.25525 87.9964 3.53233 88.7106 3.7658 89.2716C3.875 89.534 3.98988 89.817 4.02107 89.9005C4.25681 90.5313 5.804 93.6589 6.30654 94.5204C6.48695 94.8298 6.80014 95.3658 7.00245 95.7117C8.24505 97.8355 10.6225 101.089 12.2134 102.843C12.3876 103.035 12.8039 103.494 13.1385 103.863C13.9279 104.734 14.3604 105.17 15.248 105.99C15.6477 106.36 16.1563 106.831 16.3782 107.039C16.6003 107.246 16.98 107.57 17.2221 107.758C17.4642 107.947 17.8366 108.252 18.0496 108.437C18.409 108.748 19.2788 109.416 20.2009 110.088C20.7847 110.514 22.6331 111.746 23.1697 112.067C23.7306 112.402 24.437 112.815 24.8262 113.034C25.2876 113.293 27.7414 114.531 28.2038 114.738C28.4404 114.844 28.8373 115.017 29.0858 115.123C29.3343 115.23 29.6441 115.364 29.7742 115.422C30.265 115.64 31.0513 115.943 31.7319 116.177C34.088 116.984 34.5445 117.126 36.0561 117.522C36.2572 117.575 36.6348 117.675 36.8951 117.745C37.1554 117.815 37.4362 117.873 37.519 117.873C37.6018 117.873 37.8705 117.931 38.1161 118.003C38.3618 118.074 38.6252 118.133 38.7016 118.133C38.7781 118.133 39.1721 118.201 39.5772 118.285C39.9823 118.369 40.4933 118.457 40.7127 118.479C40.9321 118.501 41.2956 118.561 41.5204 118.611C41.7578 118.663 42.2087 118.716 42.5961 118.737C42.9629 118.756 43.476 118.802 43.7363 118.839C43.9966 118.876 44.3751 118.927 44.5775 118.953C45.0449 119.013 51.1184 119.017 51.6079 118.958C51.7984 118.935 52.2738 118.877 52.6643 118.829C53.0547 118.781 53.5775 118.733 53.826 118.721C54.0744 118.71 54.4617 118.66 54.6865 118.61C54.9113 118.56 55.2684 118.502 55.48 118.48C56.0554 118.422 57.9031 118.057 59.0322 117.778C59.2333 117.728 59.5721 117.651 59.7851 117.606C59.9981 117.561 60.3272 117.476 60.5166 117.417C60.7059 117.359 61.1028 117.242 61.3986 117.157C61.8812 117.019 63.6735 116.434 64.2814 116.216C64.4115 116.17 64.6826 116.073 64.8837 116.001C65.2778 115.86 66.0102 115.567 66.7339 115.26C68.3932 114.556 70.6706 113.403 72.3488 112.418C73.2972 111.861 75.2784 110.556 75.9845 110.022C76.162 109.888 76.4331 109.693 76.5869 109.589C76.9756 109.326 77.9249 108.578 78.5661 108.028C78.8619 107.775 79.2976 107.406 79.5342 107.208C80.07 106.759 81.3716 105.552 81.9437 104.973C84.3758 102.51 86.7119 99.581 88.4647 96.7959C89.4507 95.2294 90.605 93.183 91.0479 92.2168C91.1384 92.0193 91.3412 91.5882 91.4985 91.2586C91.8237 90.5774 91.9179 90.3611 92.3636 89.2716C93.0643 87.5589 93.5625 86.1393 94.0531 84.4579C94.1505 84.1239 94.2882 83.6556 94.3589 83.4171C94.4297 83.1785 94.4872 82.93 94.4867 82.8646C94.4863 82.7993 94.542 82.5652 94.6106 82.3442C94.6793 82.1233 94.7473 81.8433 94.7618 81.7219C94.7763 81.6006 94.8368 81.3322 94.8963 81.1255C94.9557 80.9189 95.0313 80.5694 95.0642 80.3487C95.0971 80.1282 95.1647 79.7916 95.2144 79.6007C95.2641 79.4099 95.3159 79.1172 95.3295 78.9502C95.3431 78.7833 95.4105 78.3496 95.4794 77.9865C95.5482 77.6234 95.6046 77.2017 95.6046 77.0494C95.6046 76.7842 95.7532 75.6379 95.8052 75.5025C95.858 75.3649 96.0008 71.9626 96 70.8622C95.9993 69.9915 95.9269 67.6991 95.8677 66.6773C95.8456 66.2957 95.7774 65.6517 95.7162 65.2462C95.655 64.8407 95.6048 64.3914 95.6047 64.2478C95.6046 64.1041 95.5567 63.7541 95.4983 63.47C95.4398 63.1859 95.3711 62.7618 95.3455 62.5275C95.3199 62.2933 95.2597 61.9504 95.2115 61.7657C95.1634 61.581 95.0973 61.2503 95.0645 61.0308C95.0317 60.8113 94.9568 60.4601 94.898 60.2502C94.8392 60.0403 94.779 59.7906 94.7642 59.6952C94.7494 59.5998 94.6821 59.307 94.6146 59.0447C94.547 58.7823 94.452 58.4115 94.4034 58.2207C94.1235 57.1213 93.495 55.1213 93.0746 53.9924C92.5606 52.612 92.5732 52.6437 92.1493 51.6505C91.0471 49.0678 89.9217 46.9405 88.3638 44.4949C87.6855 43.43 87.4154 43.043 86.3687 41.6353C85.4982 40.4647 85.1214 39.9913 84.1328 38.8264C82.8516 37.3166 80.5422 35.0145 79.233 33.942C79.0437 33.7869 78.7242 33.5201 78.5231 33.3492C77.4609 32.4462 74.8389 30.5669 74.1129 30.1882C73.9709 30.1141 73.8035 30.0122 73.7409 29.9617C73.6782 29.9113 73.6016 29.8785 73.5705 29.8889C73.5381 29.8998 73.6238 29.9859 73.7704 30.09C73.9114 30.1901 74.1259 30.3546 74.247 30.4556C74.3681 30.5565 74.6295 30.7605 74.8279 30.9089C75.3416 31.2933 75.9082 31.7466 76.3072 32.0925C76.4965 32.2566 76.7696 32.4846 76.9139 32.5992C77.7571 33.2682 80.4489 35.9039 81.6451 37.2318C83.8909 39.7247 86.2443 43.1708 87.9232 46.4248C88.3793 47.3088 89.3343 49.3933 89.6021 50.0893C89.6892 50.3159 89.8167 50.6379 89.8853 50.8049C90.0543 51.2161 90.4722 52.3875 90.5739 52.7347C90.6192 52.8898 90.7025 53.1532 90.7589 53.3202C90.9207 53.7995 91.2925 55.0904 91.4208 55.6186C91.4556 55.7618 91.5398 56.0725 91.6081 56.3093C91.6763 56.546 91.7322 56.792 91.7322 56.856C91.7322 56.92 91.7884 57.1751 91.8572 57.423C91.9259 57.6709 91.9939 58.0023 92.0083 58.1595C92.0226 58.3166 92.0805 58.6289 92.137 58.8534C92.1934 59.0778 92.2631 59.4566 92.2918 59.6952C92.3205 59.9337 92.4 60.448 92.4684 60.838C92.5457 61.2792 92.5927 61.6986 92.5927 61.9477C92.5927 62.1679 92.6226 62.5416 92.659 62.778C92.8047 63.7225 92.8278 64.2864 92.8286 66.9158C92.8292 68.8935 92.8149 69.6463 92.7707 69.9732C92.698 70.5107 92.6488 71.0157 92.5952 71.7729C92.554 72.3562 92.5297 72.5474 92.4075 73.2474C92.3721 73.4502 92.3199 73.8112 92.2914 74.0497C92.2629 74.2882 92.1934 74.6671 92.137 74.8915C92.0805 75.116 92.0226 75.4282 92.0083 75.5854C91.9939 75.7426 91.9259 76.074 91.8572 76.3219C91.7884 76.5698 91.7322 76.8249 91.7322 76.8889C91.7322 76.9528 91.6844 77.1661 91.6259 77.3629C91.5675 77.5597 91.4984 77.8412 91.4725 77.9885C91.4465 78.1358 91.3698 78.4418 91.3021 78.6683C91.2344 78.8949 91.0982 79.3535 90.9994 79.6875C90.109 82.6971 88.7728 85.9064 87.3431 88.4694C86.3757 90.2036 85.846 91.0519 84.6422 92.7956C83.9554 93.7903 82.7491 95.3079 81.7035 96.4929C80.8618 97.4467 79.4407 98.9169 78.8174 99.4787C77.6057 100.571 76.6686 101.391 76.3158 101.669C75.3776 102.407 74.486 103.083 74.099 103.348C72.5269 104.425 71.7744 104.921 71.3807 105.141C71.1322 105.28 70.8107 105.469 70.6661 105.563C69.8042 106.117 66.7725 107.629 65.5076 108.135C65.342 108.201 65.0709 108.31 64.9052 108.378C63.8783 108.796 61.8919 109.491 61.248 109.658C61.106 109.694 60.835 109.771 60.6456 109.829C59.5229 110.169 59.2693 110.24 59.1622 110.24C59.0968 110.24 58.8423 110.298 58.5967 110.37C58.3511 110.441 58.099 110.499 58.0364 110.5C57.9739 110.5 57.7029 110.556 57.4341 110.625C57.1653 110.693 56.7711 110.773 56.5581 110.801C56.3452 110.83 55.9289 110.902 55.6331 110.962C55.3373 111.022 54.8726 111.088 54.6004 111.109C54.3283 111.13 53.883 111.189 53.6108 111.24C53.3063 111.297 52.7934 111.348 52.277 111.372C51.8156 111.394 51.0314 111.433 50.5344 111.46C49.3716 111.523 47.843 111.523 46.7266 111.46C46.2415 111.432 45.4767 111.392 45.0271 111.371C44.3177 111.338 43.4415 111.239 43.243 111.168C43.2084 111.156 42.9373 111.128 42.6407 111.105C42.344 111.083 41.9173 111.026 41.6925 110.978C41.4677 110.93 41.0805 110.86 40.832 110.823C40.5835 110.787 40.2356 110.717 40.0588 110.669C39.8819 110.621 39.5625 110.555 39.3488 110.522C39.1352 110.49 38.7888 110.413 38.5791 110.352C38.3693 110.29 38.1467 110.24 38.0843 110.241C38.0218 110.241 37.7771 110.184 37.5405 110.115C36.6314 109.846 36.4518 109.794 36.0346 109.679C35.7979 109.613 35.4785 109.518 35.3246 109.468C35.1708 109.418 34.9482 109.349 34.8298 109.314C34.486 109.212 33.6223 108.904 33.1088 108.701C32.8485 108.598 32.4322 108.434 32.1837 108.337C30.2133 107.569 27.6893 106.304 25.8803 105.177C24.1107 104.076 23.7924 103.87 23.4065 103.581C23.1816 103.413 22.8717 103.189 22.7179 103.085C21.9855 102.588 20.118 101.087 19.3048 100.341C18.7336 99.8169 16.0149 97.0751 15.4877 96.4915C15.262 96.2415 14.9147 95.832 14.716 95.5816C14.5172 95.3311 14.2455 94.9994 14.1121 94.8443C13.8655 94.5576 12.9065 93.2806 12.3827 92.5412C11.8087 91.731 10.5387 89.691 9.8748 88.5127C9.69388 88.1916 8.54628 85.8962 8.33541 85.4336C8.04868 84.8046 7.51176 83.5244 7.32605 83.0268C7.24598 82.8121 7.12159 82.4803 7.04965 82.2895C6.60403 81.107 6.05759 79.3417 5.72741 78.0178C5.67685 77.8151 5.58818 77.4736 5.53035 77.2589C5.47252 77.0442 5.39542 76.693 5.35902 76.4783C5.32262 76.2636 5.25378 75.9514 5.20606 75.7844C5.15834 75.6175 5.09944 75.3057 5.07517 75.0916C5.05091 74.8775 4.98331 74.4935 4.92501 74.2382C4.86667 73.9829 4.81895 73.6795 4.81895 73.564C4.81895 73.4484 4.76904 73.0811 4.70803 72.7477C4.64702 72.4143 4.57951 71.8781 4.55804 71.5561C4.50727 70.7948 4.45052 70.0432 4.38279 69.236C4.35082 68.855 4.32824 67.8935 4.32824 66.9158C4.32824 65.9381 4.35082 64.9766 4.38279 64.5957C4.44045 63.9083 4.48997 63.2672 4.55701 62.3406C4.57942 62.0305 4.64753 61.5041 4.70837 61.1707C4.76917 60.8373 4.81895 60.4713 4.81895 60.3573C4.81895 60.2433 4.87704 59.8739 4.94803 59.5363C5.01902 59.1987 5.07694 58.8427 5.07677 58.7451C5.07655 58.6475 5.13343 58.3334 5.20309 58.0472C5.27279 57.761 5.38135 57.2926 5.44438 57.0064C5.6886 55.8971 5.74828 55.6633 6.09782 54.4477C6.433 53.282 6.64073 52.6338 6.92479 51.8674C6.99109 51.6885 7.13304 51.2982 7.24022 51C7.34739 50.7019 7.47906 50.3506 7.5328 50.2194C8.19889 48.5931 9.01544 46.8584 9.77834 45.449C10.987 43.2161 12.792 40.5219 14.2761 38.7354C14.5474 38.4088 14.8878 37.9962 15.0326 37.8184C15.47 37.2814 16.9332 35.7188 17.7757 34.8891C18.5108 34.165 19.6538 33.1258 20.1583 32.7227C20.2764 32.6283 20.5085 32.4314 20.6742 32.285C21.0751 31.9308 22.7609 30.6551 23.5139 30.1361C24.2086 29.6573 26.2866 28.3414 26.7624 28.0791C27.7179 27.5522 28.9511 26.8878 28.9736 26.8878C28.9833 26.8878 29.3465 26.7193 29.7807 26.5134C30.7517 26.0529 31.7324 25.6103 32.0761 25.4775C32.2181 25.4226 32.4408 25.3274 32.5709 25.2658C32.7011 25.2043 32.832 25.1538 32.8618 25.1536C32.8916 25.1533 33.1046 25.0741 33.3351 24.9774C34.3363 24.5578 34.531 24.4293 33.9908 24.5448Z" fill="#657A29"/>
<path d="M65.5505 76.0659C65.673 75.9674 66.5417 75.6608 66.8412 75.6104C67.5134 75.4973 67.9778 75.5839 68.2689 75.8769C68.5271 76.1368 68.6155 76.3434 68.6864 76.8531C68.7828 77.5459 68.7969 77.8703 68.7523 78.3647C68.7298 78.6151 68.6927 79.1615 68.6702 79.579C68.6178 80.544 68.5647 81.0827 68.4839 81.4654C68.4021 81.853 68.3256 82.4537 68.3256 82.7089C68.3256 82.8179 68.2677 83.1095 68.1968 83.3571C68.126 83.6047 68.0679 83.8607 68.0677 83.926C68.0676 83.9913 68.0094 84.2275 67.9384 84.4508C67.8674 84.6742 67.8093 84.8809 67.8093 84.9101C67.8093 85.0379 67.3423 86.2079 67.0378 86.8429C66.6624 87.6259 66.0884 88.5212 65.6058 89.0763C64.6159 90.2152 63.4093 91.1496 61.8717 91.9682C61.3644 92.2384 60.8121 92.5441 60.3294 92.8221C60.1792 92.9086 60.0492 92.9793 60.0405 92.9793C60.0317 92.9793 59.8352 93.0938 59.6036 93.2336C59.372 93.3735 59.0955 93.5323 58.989 93.5865C58.8825 93.6407 58.6501 93.777 58.4727 93.8894C58.2952 94.0018 57.6562 94.4022 57.0528 94.7791C56.1087 95.3687 54.7786 96.2334 53.9549 96.7928C53.5561 97.0637 52.8011 97.6112 52.1922 98.071C51.5049 98.5901 51.4389 98.6301 51.3273 98.5944C51.136 98.5332 51.1051 98.4025 51.1309 97.7618C51.1979 96.0917 51.2387 95.6013 51.348 95.1477C51.4084 94.8972 51.4582 94.563 51.4586 94.4049C51.4591 94.2103 51.501 93.9812 51.5885 93.6949C51.6595 93.4624 51.717 93.2112 51.7164 93.1366C51.7158 93.062 51.7825 92.7766 51.8646 92.5023C52.5563 90.1926 52.7088 89.7838 53.4664 88.209C54.8111 85.4137 56.7986 82.8558 59.3898 80.5855C61.6851 78.5746 63.7289 77.0486 65.1202 76.3069C65.3332 76.1934 65.5268 76.0849 65.5505 76.0659Z" fill="#78852C"/>
<path d="M66.9145 32.1507C67.2004 31.726 67.3893 31.5796 67.8467 31.4281C68.1074 31.3418 68.2509 31.3518 68.6211 31.4819C69.2564 31.7053 70.01 32.4638 70.5347 33.4079C70.8751 34.0203 70.9606 34.1887 71.1208 34.5625C71.586 35.6488 72.277 38.0527 72.2792 38.5931C72.2796 38.6988 72.3292 38.9903 72.3894 39.2407C72.5396 39.8658 72.5942 40.9053 72.5942 43.1438C72.5942 45.3583 72.5403 46.401 72.389 47.1109C72.3282 47.3966 72.2784 47.7218 72.2784 47.8335C72.2784 48.0457 72.236 48.2854 72.0262 49.2586C71.8351 50.1447 71.6835 50.7629 71.5686 51.1234C71.5117 51.3023 71.4362 51.5755 71.4009 51.7305C71.2794 52.2651 70.7036 53.8725 70.1582 55.1999C69.8159 56.0331 68.9377 57.8189 68.5162 58.5392C68.3696 58.7896 68.1071 59.2385 67.9329 59.5366C67.1692 60.8434 65.8728 62.6613 64.6705 64.1116C63.5385 65.4768 62.907 66.1591 60.5966 68.5128C59.4606 69.6701 58.3072 70.8609 58.0335 71.159C56.943 72.3469 55.0449 74.5918 54.2402 75.6454C53.5795 76.5105 52.5448 77.907 52.2641 78.3125C51.7096 79.1135 50.3279 81.2825 50.1631 81.6105C50.1092 81.7179 49.9509 81.9978 49.8113 82.2325C49.3513 83.0062 48.1085 85.6019 47.812 86.4084C47.7517 86.5722 47.6443 86.8623 47.5734 87.0531C47.2603 87.8942 46.7207 89.7233 46.7207 89.9434C46.7207 90.0062 46.6699 90.2501 46.6078 90.4853C46.5457 90.7204 46.4791 91.0885 46.4598 91.3031C46.4405 91.5178 46.4033 91.8593 46.3771 92.062C46.2108 93.3498 46.1804 93.8807 46.2424 94.4207C46.27 94.6619 46.3128 95.0446 46.3374 95.2712C46.4576 96.3799 46.6131 97.1096 46.9274 98.0403C47.1347 98.6544 47.5253 99.5035 47.848 100.042C48.2121 100.649 48.2495 100.779 48.06 100.779C47.8985 100.779 46.4665 99.7634 45.7169 99.1172C44.5141 98.0805 43.0736 96.4511 42.2016 95.1411C41.3841 93.913 40.6655 92.482 40.1871 91.1297C39.9546 90.4724 39.715 89.6899 39.6825 89.4817C39.6676 89.3863 39.5993 89.0866 39.5308 88.8157C39.4623 88.5448 39.4063 88.2418 39.4063 88.1425C39.4063 88.0432 39.3542 87.7281 39.2905 87.4425C39.1752 86.9249 39.1747 86.9157 39.1591 84.8414C39.1427 82.6797 39.1599 82.369 39.3455 81.4668C39.3789 81.3042 39.407 81.07 39.4079 80.9464C39.4087 80.8227 39.4359 80.5947 39.4681 80.4396C39.6265 79.6797 39.7616 79.0863 39.8434 78.7917C39.893 78.6128 39.9571 78.3591 39.9858 78.2279C40.0713 77.8363 40.7662 75.6694 41.0288 74.9754C41.6551 73.3203 42.855 70.7986 43.7217 69.3159C44.5305 67.9323 44.9542 67.226 45.3154 66.6587C45.8335 65.8454 47.4484 63.4549 48.0174 62.6591C48.8601 61.4804 49.0231 61.2572 50.2489 59.6029C50.9233 58.6926 51.5359 57.8614 51.6101 57.7557C51.6843 57.6499 51.962 57.2804 52.227 56.9346C52.492 56.5887 52.9735 55.9567 53.2968 55.53L54.6934 53.6869C55.1382 53.0999 55.6029 52.475 55.7261 52.2982C55.8492 52.1215 56.2694 51.5433 56.6598 51.0134C57.5888 49.7527 58.4212 48.585 58.9773 47.7624C60.1843 45.977 61.0855 44.5655 61.8291 43.2956C62.8345 41.5786 63.0313 41.2219 63.6477 39.9997C64.5938 38.1239 65.5698 35.7934 66.0271 34.3186C66.4425 32.9785 66.575 32.655 66.9145 32.1507Z" fill="#657A29"/>
<path fill-rule="evenodd" clip-rule="evenodd" d="M45.2198 0.0547379C45.2198 0.162332 45.3708 0.33424 46.2947 1.27869C47.3092 2.31578 47.5272 2.56293 48.15 3.382C49.0851 4.61177 49.9075 6.03829 50.4473 7.36672C50.7084 8.00912 51.1023 9.2345 51.1797 9.64472C51.2152 9.83345 51.2826 10.1128 51.3294 10.2655C51.3762 10.4183 51.4342 10.7518 51.4581 11.0066C51.4821 11.2615 51.5438 11.7042 51.5952 11.9904C51.6758 12.4394 51.691 12.7107 51.7057 13.9675C51.7222 15.3745 51.719 15.4474 51.6113 16.1019C51.5499 16.4746 51.4824 17.0097 51.4613 17.291C51.4401 17.5723 51.3825 17.9613 51.3333 18.1556C51.284 18.3499 51.2235 18.6557 51.1988 18.8351C51.1533 19.1643 50.9665 19.9452 50.6469 21.1409C50.0809 23.2587 48.99 26.1535 47.746 28.8386C47.1509 30.123 45.7632 32.8573 44.9397 34.3679C43.798 36.4623 41.8298 39.9787 40.6189 42.0873C40.3997 42.4689 39.8619 43.4154 39.4239 44.1906C38.9858 44.9658 38.5154 45.7952 38.3786 46.0337C38.2418 46.2722 37.9024 46.8675 37.6243 47.3564C37.3462 47.8454 36.9347 48.5674 36.7098 48.961C36.4849 49.3546 36.1076 50.0181 35.8713 50.4355C35.4623 51.1582 35.0655 51.8456 34.4195 52.9508C34.2592 53.2251 33.9491 53.7618 33.7305 54.1434C33.2055 55.0599 32.5459 56.1947 31.9031 57.2875C30.1504 60.2674 29.6565 61.1658 28.4915 63.4942C27.6588 65.1585 26.9666 66.7232 26.2907 68.4696C25.7721 69.8097 24.9849 72.2596 24.7628 73.225C24.708 73.4635 24.6308 73.7953 24.5914 73.9622C24.3053 75.1734 24.2208 75.5673 24.1797 75.8815C24.1539 76.0784 24.0855 76.4687 24.0276 76.7489C23.9698 77.029 23.922 77.4045 23.9213 77.5834C23.9207 77.7623 23.9005 78.0453 23.8766 78.2122C23.6777 79.5986 23.6637 79.8264 23.6641 81.6599C23.6645 83.434 23.7074 84.1921 23.8405 84.7774C23.8656 84.8875 23.9019 85.2117 23.9213 85.4979C23.9407 85.7842 23.9963 86.1745 24.0448 86.3653C24.0933 86.5561 24.1552 86.8586 24.1822 87.0375C24.3476 88.131 25.0219 90.2849 25.696 91.8729C26.3169 93.3354 26.9119 94.4428 27.8038 95.7953C29.0602 97.7006 30.3906 99.232 32.101 100.742C33.0471 101.577 33.5401 101.96 34.5774 102.666C36.6268 104.061 39.0185 105.196 41.4405 105.921C42.096 106.118 43.3361 106.423 43.4788 106.423C43.5547 106.423 43.8081 106.473 44.0419 106.534C44.3022 106.602 44.6836 106.66 45.0262 106.684C45.3339 106.706 45.8469 106.766 46.1664 106.818C46.6618 106.9 46.9664 106.916 48.2362 106.932C49.7115 106.95 49.7338 106.949 50.6807 106.816C51.2063 106.743 51.7538 106.683 51.8972 106.683C52.0408 106.683 52.3788 106.633 52.6483 106.572C52.9178 106.511 53.3074 106.434 53.514 106.4C54.1139 106.302 55.8594 105.811 56.6218 105.525C57.0213 105.375 57.9373 104.925 58.1039 104.796C58.3591 104.598 57.9135 104.643 56.3397 104.974C56.0544 105.034 55.5814 105.101 55.2887 105.123C54.996 105.146 54.726 105.174 54.6887 105.185C54.6515 105.197 54.2919 105.246 53.8896 105.294C52.7677 105.428 52.1123 105.41 50.6522 105.207C50.3152 105.16 49.9183 105.121 49.7702 105.121C49.6221 105.12 49.3751 105.092 49.2213 105.057C49.0675 105.023 48.7073 104.946 48.421 104.887C47.838 104.766 46.8386 104.482 45.9825 104.193C43.9488 103.508 41.5503 102.147 39.7985 100.684C39.3082 100.274 37.9437 98.9164 37.481 98.378C36.605 97.3585 35.8494 96.2013 35.1735 94.8443C34.9141 94.3235 34.3815 93.1 34.2308 92.6788C33.9531 91.9026 33.5872 90.5519 33.4543 89.813C33.3964 89.491 33.309 89.0421 33.26 88.8155C33.211 88.5889 33.1523 88.0913 33.1296 87.7097C33.107 87.328 33.0589 86.7426 33.023 86.4086C32.9344 85.5869 32.9406 84.7918 33.0434 83.8066C33.0907 83.3534 33.1298 82.8265 33.1302 82.6357C33.1311 82.2488 33.2113 81.6308 33.3413 81.0094C33.3887 80.7828 33.4469 80.4218 33.4707 80.2071C33.4945 79.9925 33.5617 79.6119 33.62 79.3615C33.6785 79.111 33.7967 78.6036 33.8829 78.2339C34.2099 76.8312 34.683 75.2926 35.2879 73.6647C36.2498 71.076 37.5024 68.371 38.6142 66.4814C38.7616 66.2309 39.1403 65.5772 39.4557 65.0286C39.7711 64.48 40.2064 63.7286 40.4229 63.3589C40.6395 62.9892 41.0184 62.3383 41.2649 61.9125C41.5115 61.4867 41.8984 60.8232 42.1249 60.438C42.6162 59.6023 43.5737 57.9683 44.1363 57.0056C44.3594 56.624 44.7882 55.8922 45.0893 55.3794C45.7655 54.2279 46.3598 53.2094 46.9448 52.1995C47.1912 51.7745 47.5545 51.15 47.7523 50.8118C48.2027 50.042 48.6806 49.217 49.0505 48.5707C49.9513 46.9971 50.2036 46.5572 50.4177 46.1855C51.3684 44.5355 52.0556 43.3126 52.9766 41.6319C53.9286 39.8948 54.3045 39.1404 55.1158 37.3386C55.6123 36.236 55.9214 35.4929 56.406 34.2378C56.7648 33.3086 57.4326 31.4005 57.5649 30.9267C57.6092 30.7681 57.7373 30.3261 57.8495 29.9445C57.9618 29.5628 58.0875 29.1042 58.1289 28.9253C58.1703 28.7464 58.2545 28.3952 58.3158 28.1447C58.5308 27.2667 58.6117 26.9065 58.6519 26.6485C58.6979 26.3534 58.7813 25.8901 58.8746 25.4126C58.9095 25.2337 58.9599 24.8434 58.9866 24.5452C59.0134 24.2471 59.0713 23.7592 59.1153 23.4611C59.2532 22.5277 59.2894 21.9507 59.2894 20.6855C59.2894 19.4395 59.2491 18.7635 59.1331 18.0618C59.0976 17.8472 59.0313 17.3788 58.9858 17.021C58.7447 15.1261 58.0515 12.8635 57.1392 10.993C55.1421 6.89853 51.6186 3.3758 46.7789 0.635166C46.379 0.408745 45.933 0.173044 45.7877 0.111419C45.503 -0.00935863 45.2198 -0.0376344 45.2198 0.0547379Z" fill="#90BD21"/>
</svg>
