<svg width="584" height="751" viewBox="0 0 584 751" fill="none" xmlns="http://www.w3.org/2000/svg">
<g opacity="0.15">
<path d="M-48.7109 105.139C-9.30634 67.6537 37.8266 39.2493 89.3781 21.9202C140.93 4.59115 195.65 -1.24243 249.696 4.82912C303.742 10.9007 355.804 28.7302 402.225 57.0656C448.647 85.4009 488.303 123.555 518.408 168.849" stroke="#1F1F1F" stroke-width="5" stroke-linecap="round"/>
<path d="M310.349 716.884C226.054 742.102 135.414 735.279 55.8431 697.728C-23.7274 660.176 -86.6143 594.544 -120.734 513.443" stroke="#8CBC43" stroke-width="5" stroke-linecap="round"/>
<path d="M-51.3368 573.844C-86.3262 528.169 -108.638 474.067 -116.015 417.006C-123.393 359.945 -115.576 301.948 -93.3544 248.876C-71.1327 195.805 -35.2938 149.54 10.5395 114.759C56.3728 79.9785 110.576 57.9141 167.67 50.7965C224.764 43.6788 282.725 51.7602 335.695 74.2237C388.665 96.6872 434.765 132.737 469.337 178.728C503.908 224.719 525.725 279.023 532.583 336.149C539.44 393.275 531.094 451.198 508.39 504.065" stroke="#8CBC43" stroke-width="5" stroke-linecap="round"/>
<path d="M145.773 659.898C91.2968 647.976 41.3827 620.68 1.95057 581.248" stroke="#8CBC43" stroke-width="5" stroke-linecap="round"/>
<path d="M146.744 90.0894C201.261 78.3534 258 82.499 310.231 102.035" stroke="#1F1F1F" stroke-width="5" stroke-linecap="round"/>
<path d="M379.023 653.652C324.196 687.294 260.661 704.009 196.377 701.701C132.093 699.394 69.9196 678.168 17.646 640.681" stroke="#1F1F1F" stroke-width="5" stroke-linecap="round"/>
</g>
</svg>
